<svg version="1.1" id="Layer_1" xmlns="http://www.w3.org/2000/svg" xmlns:xlink="http://www.w3.org/1999/xlink" x="0px" y="0px"
	 width="100%" viewBox="0 0 500 500" enable-background="new 0 0 500 500" xml:space="preserve">
<path fill="#000000" opacity="1.000000" stroke="none" 
	d="
M286.000000,501.000000 
	C190.666687,501.000000 95.833382,501.000000 1.000051,501.000000 
	C1.000034,334.333405 1.000034,167.666794 1.000017,1.000140 
	C167.666565,1.000094 334.333130,1.000094 500.999756,1.000047 
	C500.999847,167.666519 500.999847,334.333038 500.999939,500.999786 
	C429.500000,501.000000 358.000000,501.000000 286.000000,501.000000 
M376.045807,74.426849 
	C369.493652,70.487366 363.001434,66.443871 356.379028,62.626259 
	C326.484558,45.392948 294.136353,36.429012 259.781097,35.110577 
	C217.824448,33.500431 178.674576,43.294411 142.155594,64.372292 
	C118.711021,77.903938 98.852943,95.388245 81.909073,116.142654 
	C64.125923,137.925095 51.529518,162.796646 43.737144,189.734482 
	C32.193985,229.638641 31.653927,269.753937 43.180820,310.001709 
	C51.766575,339.980164 65.959602,366.862396 86.075256,390.451813 
	C101.134949,408.112152 118.327507,423.477081 138.486694,435.507812 
	C157.108627,446.621185 176.685043,455.176697 197.614822,460.524261 
	C221.036835,466.508545 244.809830,468.212799 268.983612,466.174194 
	C304.933960,463.142517 337.975403,451.989685 368.207764,432.427246 
	C385.790466,421.050049 401.849426,407.701233 415.155334,391.576660 
	C428.293304,375.655579 439.970184,358.617188 448.270477,339.474854 
	C459.602081,313.341583 466.238556,286.166992 466.928650,257.664734 
	C467.541840,232.336929 464.226990,207.639343 456.313934,183.379135 
	C449.934631,163.821259 440.773834,145.807388 429.450439,128.916916 
	C415.233795,107.710739 396.919861,90.251122 376.045807,74.426849 
z"/>
<path fill="#04111B" opacity="1.000000" stroke="none" 
	d="
M376.342712,74.630920 
	C396.919861,90.251122 415.233795,107.710739 429.450439,128.916916 
	C440.773834,145.807388 449.934631,163.821259 456.313934,183.379135 
	C464.226990,207.639343 467.541840,232.336929 466.928650,257.664734 
	C466.238556,286.166992 459.602081,313.341583 448.270477,339.474854 
	C439.970184,358.617188 428.293304,375.655579 415.155334,391.576660 
	C401.849426,407.701233 385.790466,421.050049 368.207764,432.427246 
	C337.975403,451.989685 304.933960,463.142517 268.983612,466.174194 
	C244.809830,468.212799 221.036835,466.508545 197.614822,460.524261 
	C176.685043,455.176697 157.108627,446.621185 138.486694,435.507812 
	C118.327507,423.477081 101.134949,408.112152 86.075256,390.451813 
	C65.959602,366.862396 51.766575,339.980164 43.180820,310.001709 
	C31.653927,269.753937 32.193985,229.638641 43.737144,189.734482 
	C51.529518,162.796646 64.125923,137.925095 81.909073,116.142654 
	C98.852943,95.388245 118.711021,77.903938 142.155594,64.372292 
	C178.674576,43.294411 217.824448,33.500431 259.781097,35.110577 
	C294.136353,36.429012 326.484558,45.392948 356.379028,62.626259 
	C363.001434,66.443871 369.493652,70.487366 376.342712,74.630920 
M175.314987,290.735321 
	C175.314987,290.735321 175.308167,290.777496 175.420853,291.402893 
	C176.055618,292.209412 176.690384,293.015930 177.735703,294.337280 
	C184.715988,302.516296 188.638229,311.671631 186.994736,322.692108 
	C186.727707,324.482697 186.972336,326.349792 186.982941,328.181519 
	C187.036270,337.392029 187.038010,337.186493 196.454575,337.252502 
	C200.935608,337.283936 202.293701,335.495728 202.149719,331.309509 
	C201.943817,325.322357 201.697983,319.281464 202.277023,313.342285 
	C202.646179,309.555634 203.785583,305.481384 205.777527,302.281860 
	C212.459610,291.548828 219.698517,281.163177 226.673233,270.610840 
	C227.711746,269.039642 228.475845,267.287048 229.945969,264.533936 
	C225.484756,264.533936 222.189636,264.728699 218.926926,264.486694 
	C214.427643,264.152954 211.475281,265.782715 209.297699,269.867554 
	C206.092438,275.880157 202.416611,281.646881 198.816956,287.441132 
	C197.750046,289.158508 196.265060,290.616180 194.612991,292.630066 
	C192.929565,290.412048 191.611816,288.930542 190.580307,287.271118 
	C186.801300,281.191742 183.197098,275.002289 179.344406,268.970978 
	C178.325623,267.376099 176.757782,265.175018 175.258911,265.019684 
	C170.393539,264.515503 165.443207,264.831238 159.763321,264.831238 
	C160.434509,266.878571 160.872559,268.214752 161.481781,270.136688 
	C161.964447,270.768097 162.447128,271.399536 163.124588,272.299133 
	C163.124588,272.299133 163.272873,272.595551 163.466797,273.163727 
	C163.942993,273.784546 164.419189,274.405334 165.298035,275.493347 
	C165.947800,276.542419 166.597549,277.591522 167.335419,279.333618 
	C168.276871,280.509949 169.218338,281.686279 170.089569,282.963898 
	C170.089569,282.963898 170.136353,282.850739 170.314560,283.371429 
	C170.750854,283.945526 171.187149,284.519623 171.989929,285.610352 
	C172.498734,286.528259 173.007538,287.446167 173.701111,288.948883 
	C174.224838,289.544342 174.748566,290.139771 175.314987,290.735321 
M241.139877,106.208542 
	C251.278702,106.583336 261.720520,105.532631 271.497253,107.610825 
	C296.802002,112.989746 312.813019,137.530716 309.788940,164.203094 
	C306.936829,189.358673 286.733765,207.009705 260.411255,207.162231 
	C241.418747,207.272278 222.425064,207.183914 203.431915,207.177734 
	C195.073471,207.175018 195.117889,207.167938 195.119980,198.907959 
	C195.129456,161.254730 195.121628,123.601501 195.094009,85.948288 
	C195.089539,79.864212 194.571976,79.363129 188.561768,79.307732 
	C183.897354,79.264732 179.231598,79.295204 174.567108,79.349510 
	C167.434799,79.432533 167.326050,79.496544 167.318008,86.691383 
	C167.265442,133.673843 167.236664,180.656357 167.221085,227.638840 
	C167.219101,233.614304 167.601013,233.976730 173.935593,233.980011 
	C202.758560,233.994904 231.581635,234.021378 260.404480,233.958344 
	C298.471802,233.875092 328.016144,209.601608 335.679199,172.211594 
	C344.989471,126.784470 313.981354,83.851044 268.450684,80.206863 
	C251.388565,78.841240 234.156509,79.612099 217.002472,79.371330 
	C213.281418,79.319107 211.721817,80.802223 211.737808,84.746384 
	C211.872269,117.899925 211.881851,151.054199 211.813858,184.208008 
	C211.806580,187.755722 213.264069,188.916550 216.573105,188.856537 
	C222.235519,188.753845 227.912766,188.630219 233.562347,188.925430 
	C238.092926,189.162170 239.282013,187.146866 239.230789,182.994354 
	C239.074600,170.334244 239.254547,157.670349 239.167358,145.008865 
	C239.100891,135.357224 238.826752,125.707024 238.848206,115.263893 
	C239.309402,112.250893 239.770615,109.237900 241.139877,106.208542 
M241.911118,298.500000 
	C241.928207,309.488922 242.160187,320.483643 241.864532,331.464142 
	C241.732468,336.368896 243.892609,337.329529 248.130600,337.253754 
	C255.811783,337.116425 256.262421,337.057526 256.321869,331.352753 
	C256.451996,318.866608 256.423431,306.378815 256.491028,293.891876 
	C256.499542,292.320374 256.696564,290.749878 256.806213,289.178925 
	C258.969421,290.189270 260.109344,291.506714 261.063660,292.947174 
	C268.875397,304.738220 277.123871,316.276031 284.262024,328.463440 
	C288.495972,335.692322 293.694702,338.300629 301.691589,337.280151 
	C305.073029,336.848663 306.376862,335.666992 306.367126,332.368958 
	C306.305176,311.390411 306.265656,290.411499 306.354706,269.433258 
	C306.370514,265.712677 304.855530,264.271149 301.284851,264.558258 
	C299.961426,264.664642 298.609802,264.692596 297.292603,264.553070 
	C293.232483,264.122894 291.673248,265.761139 291.748627,269.935547 
	C291.950012,281.087219 291.829742,292.245056 291.788879,303.400299 
	C291.781250,305.476379 291.548035,307.551605 291.418945,309.627228 
	C289.240692,308.594574 288.102356,307.278198 287.133453,305.847076 
	C279.857330,295.100372 272.084137,284.641266 265.544769,273.461456 
	C261.060638,265.795349 255.296173,263.647888 247.079575,264.542542 
	C243.247375,264.959778 241.843842,266.246155 241.902512,270.028595 
	C242.044510,279.183594 241.926682,288.342590 241.911118,298.500000 
M325.812775,330.352020 
	C326.047241,337.138550 326.047241,337.140747 332.977112,337.171753 
	C334.143250,337.176971 335.311646,337.104126 336.475311,337.153656 
	C339.407318,337.278473 340.773560,335.869995 340.770386,332.974548 
	C340.766357,329.309174 341.063690,325.623627 340.776764,321.982544 
	C340.175903,314.358124 345.696136,311.129486 350.761353,306.540222 
	C356.965118,315.858795 362.697449,324.602875 368.608917,333.224091 
	C369.657959,334.754028 371.354492,336.686584 372.921448,336.854797 
	C377.466431,337.342651 382.097565,337.027588 387.822815,337.027588 
	C386.107788,333.916931 385.087097,331.710785 383.756104,329.711243 
	C376.928528,319.454254 370.130829,309.173645 363.072571,299.076141 
	C361.037506,296.164795 361.246490,294.234283 363.593903,291.739075 
	C370.212128,284.704102 376.655334,277.503601 383.113068,270.319366 
	C384.362091,268.929779 385.364258,267.318268 386.994720,265.113525 
	C377.531891,264.116425 369.486450,262.669861 363.224670,271.319397 
	C358.075806,278.431671 351.606201,284.590363 345.687805,291.140778 
	C344.539185,292.412079 343.232788,293.540802 341.999176,294.735321 
	C341.576172,294.570801 341.153168,294.406250 340.730164,294.241730 
	C340.730164,286.470856 340.788574,278.699432 340.711304,270.929321 
	C340.651581,264.923706 340.060822,264.467255 333.479401,264.494415 
	C326.196350,264.524475 325.841492,264.777222 325.831604,270.900665 
	C325.800171,290.394928 325.811523,309.889282 325.812775,330.352020 
M130.089081,313.404633 
	C130.085236,300.409271 130.080856,287.413940 130.077698,274.418579 
	C130.075211,264.184113 130.078568,264.285706 119.871666,264.554077 
	C116.355179,264.646576 114.711533,265.817963 114.728279,269.522491 
	C114.822449,290.347504 114.850769,311.173248 114.763588,331.998199 
	C114.747208,335.908264 116.317863,337.248871 120.125923,337.195496 
	C130.953140,337.043762 141.783844,337.142700 152.613174,337.138855 
	C162.310944,337.135437 162.154053,337.134888 162.040222,327.576111 
	C161.995377,323.810730 160.512070,322.594025 156.969818,322.666840 
	C150.808456,322.793549 144.641830,322.677704 138.477509,322.645660 
	C130.140808,322.602295 130.140839,322.595062 130.089081,313.404633 
M227.699280,364.781433 
	C223.135895,357.920380 214.715332,355.156250 206.134903,357.702728 
	C197.738266,360.194672 191.984253,368.049622 191.810822,377.256927 
	C191.641678,386.236572 196.874924,394.195831 204.626709,396.748657 
	C215.640121,400.375610 227.003021,394.934143 229.985901,384.604614 
	C232.146759,377.121704 231.106613,375.661621 223.483215,375.545929 
	C221.153809,375.510590 218.714081,375.126343 216.530930,375.694214 
	C215.021805,376.086761 213.866379,377.839142 212.552917,378.983887 
	C213.698883,380.129791 214.674515,381.588318 216.039612,382.332031 
	C217.355988,383.049255 219.074402,383.028564 220.916992,383.391235 
	C219.538651,388.994385 215.788391,390.291870 211.427170,390.354065 
	C206.537582,390.423767 202.687195,386.917999 200.895767,381.220184 
	C199.285400,376.098267 201.361176,369.671387 205.659195,366.471954 
	C209.338394,363.733215 214.821106,363.568634 218.662613,366.781189 
	C222.541748,370.025146 225.333054,369.820587 227.699280,364.781433 
M138.048080,395.806610 
	C147.793411,391.326599 151.849228,383.598663 149.892014,373.239197 
	C148.122452,363.872986 141.048431,358.162994 130.661926,357.803284 
	C126.845848,357.671112 123.020775,357.779541 119.206543,357.618591 
	C116.038048,357.484894 114.702347,358.797333 114.726799,362.001068 
	C114.805397,372.296906 114.600456,382.597961 114.898537,392.885590 
	C114.939590,394.302643 117.184105,396.819031 118.443367,396.841156 
	C124.715820,396.951324 130.999939,396.397614 138.048080,395.806610 
M326.553986,359.199615 
	C322.220276,370.175629 317.810059,381.122864 313.655426,392.166229 
	C313.168457,393.460632 314.089691,395.284851 314.358124,396.863464 
	C316.501709,396.417480 320.280487,396.405548 320.532196,395.457367 
	C322.700317,387.289307 329.007446,388.696167 334.607697,389.147247 
	C336.435211,389.294434 339.049316,391.062927 339.669678,392.706635 
	C341.649841,397.953125 344.989777,397.700256 349.634094,396.125153 
	C349.060669,394.044037 348.692139,392.115631 348.003998,390.308960 
	C344.571350,381.296753 341.029999,372.325989 337.576447,363.321655 
	C335.243958,357.240356 333.695679,356.524109 326.553986,359.199615 
M282.840302,371.745789 
	C282.854797,378.568146 282.894318,385.390625 282.871796,392.212860 
	C282.862549,395.010406 283.368408,397.045746 286.911804,397.088043 
	C290.565063,397.131592 291.498962,395.184875 291.494354,392.083710 
	C291.485138,385.927063 291.514832,379.770355 291.532593,373.613678 
	C291.554810,365.928802 291.583618,366.087250 299.057098,364.813843 
	C300.391541,364.586456 302.041901,362.563324 302.323273,361.129333 
	C302.501404,360.221497 300.443054,357.903534 299.337402,357.869812 
	C291.027832,357.616394 282.701935,357.661346 274.392212,357.941559 
	C273.325043,357.977539 271.427826,359.971924 271.502411,360.936371 
	C271.608826,362.312378 273.014313,363.766113 274.199524,364.804932 
	C274.787598,365.320312 276.132233,365.099670 277.117096,365.013184 
	C281.403381,364.636627 283.379303,366.466278 282.840302,371.745789 
M364.971313,372.507599 
	C364.973755,379.154449 365.005371,385.801483 364.964355,392.448059 
	C364.947754,395.137695 365.718811,397.035706 368.822205,397.037109 
	C374.803894,397.039795 380.799011,397.252289 386.756714,396.874817 
	C388.056061,396.792480 390.375580,394.368164 390.188263,393.428619 
	C389.878876,391.877075 388.144043,390.091553 386.580383,389.447418 
	C384.861206,388.739258 382.656647,389.203674 380.663361,389.167664 
	C374.288208,389.052490 373.798431,388.615723 373.745148,382.385529 
	C373.686890,375.573120 373.724396,368.759949 373.701080,361.947144 
	C373.690277,358.796722 371.993774,357.532196 368.941650,357.587585 
	C365.911346,357.642609 364.907043,359.220581 364.992004,362.040894 
	C365.087006,365.194855 364.988708,368.354645 364.971313,372.507599 
M256.155090,369.528748 
	C256.161713,367.200867 256.135345,364.872314 256.183289,362.545288 
	C256.242157,359.690582 255.554932,357.756226 252.054169,357.772675 
	C248.751923,357.788208 247.672974,359.341766 247.683395,362.364685 
	C247.717789,372.341217 247.707092,382.318146 247.648865,392.294556 
	C247.629745,395.569916 248.910431,397.191040 252.390823,397.103271 
	C256.076202,397.010284 256.154297,394.580231 256.156342,391.969666 
	C256.161896,384.819427 256.151611,377.669220 256.155090,369.528748 
M173.219482,396.838165 
	C173.902328,395.464966 175.151611,394.102325 175.177490,392.716858 
	C175.366867,382.575409 175.285339,372.429260 175.347946,362.284943 
	C175.366821,359.226929 174.198898,357.724426 170.922760,357.767426 
	C167.413925,357.813477 166.890305,359.823700 166.901291,362.656219 
	C166.938690,372.301910 167.015991,381.950500 166.819107,391.592682 
	C166.735367,395.693512 168.226044,397.533020 173.219482,396.838165 
z"/>
<path fill="#25567D" opacity="1.000000" stroke="none" 
	d="
M238.644989,116.056175 
	C238.826752,125.707024 239.100891,135.357224 239.167358,145.008865 
	C239.254547,157.670349 239.074600,170.334244 239.230789,182.994354 
	C239.282013,187.146866 238.092926,189.162170 233.562347,188.925430 
	C227.912766,188.630219 222.235519,188.753845 216.573105,188.856537 
	C213.264069,188.916550 211.806580,187.755722 211.813858,184.208008 
	C211.881851,151.054199 211.872269,117.899925 211.737808,84.746384 
	C211.721817,80.802223 213.281418,79.319107 217.002472,79.371330 
	C234.156509,79.612099 251.388565,78.841240 268.450684,80.206863 
	C313.981354,83.851044 344.989471,126.784470 335.679199,172.211594 
	C328.016144,209.601608 298.471802,233.875092 260.404480,233.958344 
	C231.581635,234.021378 202.758560,233.994904 173.935593,233.980011 
	C167.601013,233.976730 167.219101,233.614304 167.221085,227.638840 
	C167.236664,180.656357 167.265442,133.673843 167.318008,86.691383 
	C167.326050,79.496544 167.434799,79.432533 174.567108,79.349510 
	C179.231598,79.295204 183.897354,79.264732 188.561768,79.307732 
	C194.571976,79.363129 195.089539,79.864212 195.094009,85.948288 
	C195.121628,123.601501 195.129456,161.254730 195.119980,198.907959 
	C195.117889,207.167938 195.073471,207.175018 203.431915,207.177734 
	C222.425064,207.183914 241.418747,207.272278 260.411255,207.162231 
	C286.733765,207.009705 306.936829,189.358673 309.788940,164.203094 
	C312.813019,137.530716 296.802002,112.989746 271.497253,107.610825 
	C261.720520,105.532631 251.278702,106.583336 240.262360,106.159958 
	C238.252151,106.031982 237.119492,105.952591 236.192795,105.586243 
	C238.671326,104.543221 240.983887,103.040062 243.209564,103.159241 
	C253.325104,103.700905 263.504700,104.130699 273.492493,105.685036 
	C284.690887,107.427788 294.100342,113.165161 301.061523,122.214180 
	C306.524902,129.316177 311.271362,136.929367 312.046692,146.227753 
	C313.281738,161.039047 314.051453,175.819092 303.963959,188.428207 
	C300.759399,192.433823 297.897400,197.754791 293.622864,199.667786 
	C280.808929,205.402466 269.000946,216.769226 252.904205,209.266495 
	C251.242172,208.491806 248.950897,208.983078 246.954361,209.023529 
	C232.299637,209.320450 217.646851,209.790863 202.990921,209.921509 
	C194.059631,210.001129 192.992630,208.700668 192.990875,199.737900 
	C192.983948,164.239594 192.989746,128.741287 192.987152,93.242989 
	C192.986328,82.110413 192.981018,82.111916 182.091034,81.981392 
	C180.924759,81.967415 179.757202,81.952896 178.593063,81.887947 
	C170.433899,81.432686 170.017441,81.754303 170.013046,89.792107 
	C169.988953,133.789993 169.987122,177.787872 170.005096,221.785767 
	C170.008545,230.213318 170.779297,230.987946 179.099533,230.995148 
	C207.764801,231.019928 236.436966,231.381088 265.092651,230.856689 
	C280.770050,230.569763 295.050964,225.134079 306.976318,214.608887 
	C310.421906,211.567825 313.169220,207.749939 316.403748,204.452103 
	C321.885376,198.863174 326.851715,192.955444 329.010254,185.230255 
	C334.915588,164.096100 336.850159,143.260880 325.825897,122.857361 
	C319.477539,111.107994 311.955902,100.872208 300.017395,94.108566 
	C294.093384,90.752380 288.011353,88.449196 281.708099,86.053825 
	C273.743286,83.027031 266.125244,81.920906 257.940674,81.972580 
	C245.294952,82.052422 232.648392,82.001892 219.619141,82.051239 
	C217.846146,83.797638 215.503052,85.372093 215.255295,87.226501 
	C214.651093,91.748810 215.017624,96.400826 214.992477,101.416000 
	C214.988464,103.214989 214.985260,104.598595 215.149841,106.167297 
	C223.093399,109.586983 230.869186,112.821579 238.644989,116.056175 
z"/>
<path fill="#245780" opacity="1.000000" stroke="none" 
	d="
M241.912354,298.000000 
	C241.926682,288.342590 242.044510,279.183594 241.902512,270.028595 
	C241.843842,266.246155 243.247375,264.959778 247.079575,264.542542 
	C255.296173,263.647888 261.060638,265.795349 265.544769,273.461456 
	C272.084137,284.641266 279.857330,295.100372 287.133453,305.847076 
	C288.102356,307.278198 289.240692,308.594574 291.418945,309.627228 
	C291.548035,307.551605 291.781250,305.476379 291.788879,303.400299 
	C291.829742,292.245056 291.950012,281.087219 291.748627,269.935547 
	C291.673248,265.761139 293.232483,264.122894 297.292603,264.553070 
	C298.609802,264.692596 299.961426,264.664642 301.284851,264.558258 
	C304.855530,264.271149 306.370514,265.712677 306.354706,269.433258 
	C306.265656,290.411499 306.305176,311.390411 306.367126,332.368958 
	C306.376862,335.666992 305.073029,336.848663 301.691589,337.280151 
	C293.694702,338.300629 288.495972,335.692322 284.262024,328.463440 
	C277.123871,316.276031 268.875397,304.738220 261.063660,292.947174 
	C260.109344,291.506714 258.969421,290.189270 256.806213,289.178925 
	C256.696564,290.749878 256.499542,292.320374 256.491028,293.891876 
	C256.423431,306.378815 256.451996,318.866608 256.321869,331.352753 
	C256.262421,337.057526 255.811783,337.116425 248.130600,337.253754 
	C243.892609,337.329529 241.732468,336.368896 241.864532,331.464142 
	C242.160187,320.483643 241.928207,309.488922 241.912354,298.000000 
z"/>
<path fill="#24577F" opacity="1.000000" stroke="none" 
	d="
M325.809570,329.867798 
	C325.811523,309.889282 325.800171,290.394928 325.831604,270.900665 
	C325.841492,264.777222 326.196350,264.524475 333.479401,264.494415 
	C340.060822,264.467255 340.651581,264.923706 340.711304,270.929321 
	C340.788574,278.699432 340.730164,286.470856 340.730164,294.241730 
	C341.153168,294.406250 341.576172,294.570801 341.999176,294.735321 
	C343.232788,293.540802 344.539185,292.412079 345.687805,291.140778 
	C351.606201,284.590363 358.075806,278.431671 363.224670,271.319397 
	C369.486450,262.669861 377.531891,264.116425 386.994720,265.113525 
	C385.364258,267.318268 384.362091,268.929779 383.113068,270.319366 
	C376.655334,277.503601 370.212128,284.704102 363.593903,291.739075 
	C361.246490,294.234283 361.037506,296.164795 363.072571,299.076141 
	C370.130829,309.173645 376.928528,319.454254 383.756104,329.711243 
	C385.087097,331.710785 386.107788,333.916931 387.822815,337.027588 
	C382.097565,337.027588 377.466431,337.342651 372.921448,336.854797 
	C371.354492,336.686584 369.657959,334.754028 368.608917,333.224091 
	C362.697449,324.602875 356.965118,315.858795 350.761353,306.540222 
	C345.696136,311.129486 340.175903,314.358124 340.776764,321.982544 
	C341.063690,325.623627 340.766357,329.309174 340.770386,332.974548 
	C340.773560,335.869995 339.407318,337.278473 336.475311,337.153656 
	C335.311646,337.104126 334.143250,337.176971 332.977112,337.171753 
	C326.047241,337.140747 326.047241,337.138550 325.809570,329.867798 
z"/>
<path fill="#24577F" opacity="1.000000" stroke="none" 
	d="
M167.247314,278.640594 
	C166.597549,277.591522 165.947800,276.542419 165.011871,274.974121 
	C164.241425,273.835083 163.757156,273.215332 163.272873,272.595551 
	C163.272873,272.595551 163.124588,272.299133 162.941498,271.876282 
	C162.275803,270.819275 161.793213,270.185120 161.310608,269.550934 
	C160.872559,268.214752 160.434509,266.878571 159.763321,264.831238 
	C165.443207,264.831238 170.393539,264.515503 175.258911,265.019684 
	C176.757782,265.175018 178.325623,267.376099 179.344406,268.970978 
	C183.197098,275.002289 186.801300,281.191742 190.580307,287.271118 
	C191.611816,288.930542 192.929565,290.412048 194.612991,292.630066 
	C196.265060,290.616180 197.750046,289.158508 198.816956,287.441132 
	C202.416611,281.646881 206.092438,275.880157 209.297699,269.867554 
	C211.475281,265.782715 214.427643,264.152954 218.926926,264.486694 
	C222.189636,264.728699 225.484756,264.533936 229.945969,264.533936 
	C228.475845,267.287048 227.711746,269.039642 226.673233,270.610840 
	C219.698517,281.163177 212.459610,291.548828 205.777527,302.281860 
	C203.785583,305.481384 202.646179,309.555634 202.277023,313.342285 
	C201.697983,319.281464 201.943817,325.322357 202.149719,331.309509 
	C202.293701,335.495728 200.935608,337.283936 196.454575,337.252502 
	C187.038010,337.186493 187.036270,337.392029 186.982941,328.181519 
	C186.972336,326.349792 186.727707,324.482697 186.994736,322.692108 
	C188.638229,311.671631 184.715988,302.516296 177.450821,293.776489 
	C176.546692,292.402985 175.927429,291.590240 175.308167,290.777496 
	C175.308167,290.777496 175.314987,290.735321 175.202698,290.448669 
	C174.565720,289.562714 174.041031,288.963409 173.516342,288.364075 
	C173.007538,287.446167 172.498734,286.528259 171.749329,285.079712 
	C171.051270,283.982971 170.593811,283.416840 170.136353,282.850739 
	C170.136353,282.850739 170.089569,282.963898 170.023407,282.604614 
	C169.053925,281.043732 168.150620,279.842163 167.247314,278.640594 
z"/>
<path fill="#235981" opacity="1.000000" stroke="none" 
	d="
M130.090408,313.885925 
	C130.140839,322.595062 130.140808,322.602295 138.477509,322.645660 
	C144.641830,322.677704 150.808456,322.793549 156.969818,322.666840 
	C160.512070,322.594025 161.995377,323.810730 162.040222,327.576111 
	C162.154053,337.134888 162.310944,337.135437 152.613174,337.138855 
	C141.783844,337.142700 130.953140,337.043762 120.125923,337.195496 
	C116.317863,337.248871 114.747208,335.908264 114.763588,331.998199 
	C114.850769,311.173248 114.822449,290.347504 114.728279,269.522491 
	C114.711533,265.817963 116.355179,264.646576 119.871666,264.554077 
	C130.078568,264.285706 130.075211,264.184113 130.077698,274.418579 
	C130.080856,287.413940 130.085236,300.409271 130.090408,313.885925 
z"/>
<path fill="#26557B" opacity="1.000000" stroke="none" 
	d="
M227.724930,365.077759 
	C225.333054,369.820587 222.541748,370.025146 218.662613,366.781189 
	C214.821106,363.568634 209.338394,363.733215 205.659195,366.471954 
	C201.361176,369.671387 199.285400,376.098267 200.895767,381.220184 
	C202.687195,386.917999 206.537582,390.423767 211.427170,390.354065 
	C215.788391,390.291870 219.538651,388.994385 220.916992,383.391235 
	C219.074402,383.028564 217.355988,383.049255 216.039612,382.332031 
	C214.674515,381.588318 213.698883,380.129791 212.552902,378.983887 
	C213.866379,377.839142 215.021805,376.086761 216.530930,375.694214 
	C218.714081,375.126343 221.153809,375.510590 223.483215,375.545929 
	C231.106613,375.661621 232.146759,377.121704 229.985901,384.604614 
	C227.003021,394.934143 215.640121,400.375610 204.626709,396.748657 
	C196.874924,394.195831 191.641678,386.236572 191.810822,377.256927 
	C191.984253,368.049622 197.738266,360.194672 206.134903,357.702728 
	C214.715332,355.156250 223.135895,357.920380 227.724930,365.077759 
z"/>
<path fill="#25577C" opacity="1.000000" stroke="none" 
	d="
M137.664001,395.942108 
	C130.999939,396.397614 124.715820,396.951324 118.443367,396.841156 
	C117.184105,396.819031 114.939590,394.302643 114.898537,392.885590 
	C114.600456,382.597961 114.805397,372.296906 114.726799,362.001068 
	C114.702347,358.797333 116.038048,357.484894 119.206543,357.618591 
	C123.020775,357.779541 126.845848,357.671112 130.661926,357.803284 
	C141.048431,358.162994 148.122452,363.872986 149.892014,373.239197 
	C151.849228,383.598663 147.793411,391.326599 137.664001,395.942108 
M124.515129,389.104279 
	C126.599678,389.370728 128.712967,390.000671 130.763641,389.838593 
	C138.275482,389.244934 142.907562,382.594208 141.422607,374.860596 
	C140.002655,367.465668 133.346329,363.115662 126.241188,365.191589 
	C125.113075,365.521179 123.567451,367.123932 123.559685,368.148285 
	C123.508385,374.908173 123.825020,381.670868 124.515129,389.104279 
z"/>
<path fill="#25557A" opacity="1.000000" stroke="none" 
	d="
M326.780640,358.923218 
	C333.695679,356.524109 335.243958,357.240356 337.576447,363.321655 
	C341.029999,372.325989 344.571350,381.296753 348.003998,390.308960 
	C348.692139,392.115631 349.060669,394.044037 349.634094,396.125153 
	C344.989777,397.700256 341.649841,397.953125 339.669678,392.706635 
	C339.049316,391.062927 336.435211,389.294434 334.607697,389.147247 
	C329.007446,388.696167 322.700317,387.289307 320.532196,395.457367 
	C320.280487,396.405548 316.501709,396.417480 314.358093,396.863464 
	C314.089691,395.284851 313.168457,393.460632 313.655426,392.166229 
	C317.810059,381.122864 322.220276,370.175629 326.780640,358.923218 
M330.598297,381.942535 
	C332.757629,381.759369 335.871643,382.476685 335.010559,378.685425 
	C334.278137,375.460632 332.866547,372.390076 331.755463,369.251282 
	C331.271210,369.259491 330.786957,369.267700 330.302704,369.275940 
	C329.111206,372.429382 327.669739,375.524384 326.909180,378.778534 
	C326.725708,379.563507 328.796112,380.875244 330.598297,381.942535 
z"/>
<path fill="#29577C" opacity="1.000000" stroke="none" 
	d="
M282.839355,371.280212 
	C283.379303,366.466278 281.403381,364.636627 277.117096,365.013184 
	C276.132233,365.099670 274.787598,365.320312 274.199524,364.804932 
	C273.014313,363.766113 271.608826,362.312378 271.502411,360.936371 
	C271.427826,359.971924 273.325043,357.977539 274.392212,357.941559 
	C282.701935,357.661346 291.027832,357.616394 299.337402,357.869812 
	C300.443054,357.903534 302.501404,360.221497 302.323273,361.129333 
	C302.041901,362.563324 300.391541,364.586456 299.057098,364.813843 
	C291.583618,366.087250 291.554810,365.928802 291.532593,373.613678 
	C291.514832,379.770355 291.485138,385.927063 291.494354,392.083710 
	C291.498962,395.184875 290.565063,397.131592 286.911804,397.088043 
	C283.368408,397.045746 282.862549,395.010406 282.871796,392.212860 
	C282.894318,385.390625 282.854797,378.568146 282.839355,371.280212 
z"/>
<path fill="#245478" opacity="1.000000" stroke="none" 
	d="
M364.972931,372.009766 
	C364.988708,368.354645 365.087006,365.194855 364.992004,362.040894 
	C364.907043,359.220581 365.911346,357.642609 368.941650,357.587585 
	C371.993774,357.532196 373.690277,358.796722 373.701080,361.947144 
	C373.724396,368.759949 373.686890,375.573120 373.745148,382.385529 
	C373.798431,388.615723 374.288208,389.052490 380.663361,389.167664 
	C382.656647,389.203674 384.861206,388.739258 386.580383,389.447418 
	C388.144043,390.091553 389.878876,391.877075 390.188263,393.428619 
	C390.375580,394.368164 388.056061,396.792480 386.756714,396.874817 
	C380.799011,397.252289 374.803894,397.039795 368.822205,397.037109 
	C365.718811,397.035706 364.947754,395.137695 364.964355,392.448059 
	C365.005371,385.801483 364.973755,379.154449 364.972931,372.009766 
z"/>
<path fill="#28577C" opacity="1.000000" stroke="none" 
	d="
M256.151367,370.023865 
	C256.151611,377.669220 256.161896,384.819427 256.156342,391.969666 
	C256.154297,394.580231 256.076202,397.010284 252.390823,397.103271 
	C248.910431,397.191040 247.629745,395.569916 247.648865,392.294556 
	C247.707092,382.318146 247.717789,372.341217 247.683395,362.364685 
	C247.672974,359.341766 248.751923,357.788208 252.054169,357.772675 
	C255.554932,357.756226 256.242157,359.690582 256.183289,362.545288 
	C256.135345,364.872314 256.161713,367.200867 256.151367,370.023865 
z"/>
<path fill="#27577D" opacity="1.000000" stroke="none" 
	d="
M172.788544,396.916290 
	C168.226044,397.533020 166.735367,395.693512 166.819107,391.592682 
	C167.015991,381.950500 166.938690,372.301910 166.901291,362.656219 
	C166.890305,359.823700 167.413925,357.813477 170.922760,357.767426 
	C174.198898,357.724426 175.366821,359.226929 175.347946,362.284943 
	C175.285339,372.429260 175.366867,382.575409 175.177490,392.716858 
	C175.151611,394.102325 173.902328,395.464966 172.788544,396.916290 
z"/>
<path fill="#09325B" opacity="1.000000" stroke="none" 
	d="
M235.986816,105.873192 
	C237.119492,105.952591 238.252151,106.031982 239.808319,106.168137 
	C239.770615,109.237900 239.309402,112.250893 238.746582,115.660034 
	C230.869186,112.821579 223.093399,109.586983 215.570251,106.196045 
	C217.223541,106.010483 218.624176,105.981262 220.436890,105.983521 
	C222.226334,105.994072 223.603683,105.973152 225.439911,105.969025 
	C229.261459,105.948273 232.624146,105.910736 235.986816,105.873192 
z"/>
<path fill="#09253C" opacity="1.000000" stroke="none" 
	d="
M167.291382,278.987122 
	C168.150620,279.842163 169.053925,281.043732 170.058517,282.553955 
	C169.218338,281.686279 168.276871,280.509949 167.291382,278.987122 
z"/>
<path fill="#09253C" opacity="1.000000" stroke="none" 
	d="
M175.364502,291.090210 
	C175.927429,291.590240 176.546692,292.402985 177.245544,293.519073 
	C176.690384,293.015930 176.055618,292.209412 175.364502,291.090210 
z"/>
<path fill="#09253C" opacity="1.000000" stroke="none" 
	d="
M173.608734,288.656494 
	C174.041031,288.963409 174.565720,289.562714 175.181351,290.448639 
	C174.748566,290.139771 174.224838,289.544342 173.608734,288.656494 
z"/>
<path fill="#09253C" opacity="1.000000" stroke="none" 
	d="
M170.225464,283.111084 
	C170.593811,283.416840 171.051270,283.982971 171.566101,284.821411 
	C171.187149,284.519623 170.750854,283.945526 170.225464,283.111084 
z"/>
<path fill="#09253C" opacity="1.000000" stroke="none" 
	d="
M163.369843,272.879639 
	C163.757156,273.215332 164.241425,273.835083 164.810547,274.740509 
	C164.419189,274.405334 163.942993,273.784546 163.369843,272.879639 
z"/>
<path fill="#09253C" opacity="1.000000" stroke="none" 
	d="
M161.396194,269.843811 
	C161.793213,270.185120 162.275803,270.819275 162.844116,271.742218 
	C162.447128,271.399536 161.964447,270.768097 161.396194,269.843811 
z"/>
<path fill="#215985" opacity="1.000000" stroke="none" 
	d="
M220.024811,105.952034 
	C218.624176,105.981262 217.223541,106.010483 215.402481,106.010956 
	C214.985260,104.598595 214.988464,103.214989 215.435394,101.415497 
	C217.685608,100.927864 219.514160,101.007927 221.293503,100.749390 
	C224.076477,100.345024 224.591904,98.775864 223.763306,96.113426 
	C222.318375,91.470680 221.236328,86.714996 220.002197,82.006653 
	C232.648392,82.001892 245.294952,82.052422 257.940674,81.972580 
	C266.125244,81.920906 273.743286,83.027031 281.708099,86.053825 
	C288.011353,88.449196 294.093384,90.752380 300.017395,94.108566 
	C311.955902,100.872208 319.477539,111.107994 325.825897,122.857361 
	C336.850159,143.260880 334.915588,164.096100 329.010254,185.230255 
	C326.851715,192.955444 321.885376,198.863174 316.403748,204.452103 
	C313.169220,207.749939 310.421906,211.567825 306.976318,214.608887 
	C295.050964,225.134079 280.770050,230.569763 265.092651,230.856689 
	C236.436966,231.381088 207.764801,231.019928 179.099533,230.995148 
	C170.779297,230.987946 170.008545,230.213318 170.005096,221.785767 
	C169.987122,177.787872 169.988953,133.789993 170.013046,89.792107 
	C170.017441,81.754303 170.433899,81.432686 178.593063,81.887947 
	C179.757202,81.952896 180.924759,81.967415 182.091034,81.981392 
	C192.981018,82.111916 192.986328,82.110413 192.987152,93.242989 
	C192.989746,128.741287 192.983948,164.239594 192.990875,199.737900 
	C192.992630,208.700668 194.059631,210.001129 202.990921,209.921509 
	C217.646851,209.790863 232.299637,209.320450 246.954361,209.023529 
	C248.950897,208.983078 251.242172,208.491806 252.904205,209.266495 
	C269.000946,216.769226 280.808929,205.402466 293.622864,199.667786 
	C297.897400,197.754791 300.759399,192.433823 303.963959,188.428207 
	C314.051453,175.819092 313.281738,161.039047 312.046692,146.227753 
	C311.271362,136.929367 306.524902,129.316177 301.061523,122.214180 
	C294.100342,113.165161 284.690887,107.427788 273.492493,105.685036 
	C263.504700,104.130699 253.325104,103.700905 243.209564,103.159241 
	C240.983887,103.040062 238.671326,104.543221 236.192795,105.586243 
	C232.624146,105.910736 229.261459,105.948273 225.285980,105.708862 
	C222.827728,102.959946 221.290131,103.239326 220.024811,105.952034 
z"/>
<path fill="#1F5A85" opacity="1.000000" stroke="none" 
	d="
M219.619141,82.051239 
	C221.236328,86.714996 222.318375,91.470680 223.763306,96.113426 
	C224.591904,98.775864 224.076477,100.345024 221.293503,100.749390 
	C219.514160,101.007927 217.685608,100.927864 215.436203,101.000107 
	C215.017624,96.400826 214.651093,91.748810 215.255295,87.226501 
	C215.503052,85.372093 217.846146,83.797638 219.619141,82.051239 
z"/>
<path fill="#051422" opacity="1.000000" stroke="none" 
	d="
M124.268440,388.768463 
	C123.825020,381.670868 123.508385,374.908173 123.559685,368.148285 
	C123.567451,367.123932 125.113075,365.521179 126.241188,365.191589 
	C133.346329,363.115662 140.002655,367.465668 141.422607,374.860596 
	C142.907562,382.594208 138.275482,389.244934 130.763641,389.838593 
	C128.712967,390.000671 126.599678,389.370728 124.268440,388.768463 
z"/>
<path fill="#05172C" opacity="1.000000" stroke="none" 
	d="
M330.214172,381.943634 
	C328.796112,380.875244 326.725708,379.563507 326.909180,378.778534 
	C327.669739,375.524384 329.111206,372.429382 330.302704,369.275940 
	C330.786957,369.267700 331.271210,369.259491 331.755463,369.251282 
	C332.866547,372.390076 334.278137,375.460632 335.010559,378.685425 
	C335.871643,382.476685 332.757629,381.759369 330.214172,381.943634 
z"/>
<path fill="#25567D" opacity="1.000000" stroke="none" 
	d="
M220.436890,105.983521 
	C221.290131,103.239326 222.827728,102.959946 224.827118,105.692062 
	C223.603683,105.973152 222.226334,105.994072 220.436890,105.983521 
z"/>
</svg>