
<!-- Generator: visioncortex VTracer 0.6.4 -->
<svg version="1.1" xmlns="http://www.w3.org/2000/svg" viewBox="0 0 500 500" preserveAspectRatio="xMidYMid meet">
<path d="M0 0 C165 0 330 0 500 0 C500 165 500 330 500 500 C335 500 170 500 0 500 C0 335 0 170 0 0 Z " fill="#02080D" transform="translate(0,0)"/>
<path d="M0 0 C9.24 0 18.48 0 28 0 C28 42.24 28 84.48 28 128 C39.921 127.918 51.843 127.835 64.125 127.75 C67.861 127.734 71.597 127.718 75.446 127.702 C78.855 127.669 78.855 127.669 82.263 127.63 C83.757 127.616 85.252 127.609 86.746 127.608 C100.129 127.594 112.935 126.359 124 118 C125.299 117.103 125.299 117.103 126.625 116.188 C136.204 107.364 141.768 95.284 142.301 82.316 C142.319 80.732 142.323 79.147 142.312 77.562 C142.308 76.317 142.308 76.317 142.304 75.046 C142.2 68.939 141.324 63.679 139 58 C138.608 56.804 138.216 55.608 137.812 54.375 C137.41 53.199 137.41 53.199 137 52 C136.34 52 135.68 52 135 52 C134.526 51.01 134.051 50.02 133.562 49 C131.126 44.65 127.644 41.832 123.828 38.699 C123.225 38.138 122.622 37.578 122 37 C122 36.34 122 35.68 122 35 C121.031 34.752 120.061 34.505 119.062 34.25 C115.325 33.203 111.966 31.643 108.504 29.902 C101.597 27.413 93.958 27.865 86.719 27.902 C85.138 27.904 85.138 27.904 83.525 27.907 C80.183 27.912 76.842 27.925 73.5 27.938 C71.224 27.943 68.948 27.947 66.672 27.951 C61.115 27.962 55.557 27.979 50 28 C50.583 28.147 51.165 28.294 51.766 28.445 C59.338 30.517 64.648 33.324 72 37 C72 61.09 72 85.18 72 110 C63.09 110 54.18 110 45 110 C45 74.03 45 38.06 45 1 C59.541 0.845 59.541 0.845 74.375 0.688 C77.396 0.642 80.417 0.596 83.529 0.55 C110.708 0.312 129.94 5.927 150.379 24.117 C152 26 152 26 152 29 C152.596 29.067 153.191 29.134 153.805 29.203 C156.875 30.318 157.537 31.941 159.125 34.75 C159.623 35.611 160.12 36.472 160.633 37.359 C161.931 39.867 162.996 42.363 164 45 C164.474 46.155 164.949 47.31 165.438 48.5 C173.812 71.615 170.985 94.721 160.766 116.648 C155.357 126.698 145.932 137.254 136 143 C135.34 143 134.68 143 134 143 C134 143.66 134 144.32 134 145 C115.621 153.738 98.952 155.589 78.809 155.391 C76.781 155.385 74.753 155.381 72.725 155.378 C65.296 155.358 57.867 155.302 50.438 155.25 C33.793 155.167 17.149 155.085 0 155 C0 103.85 0 52.7 0 0 Z " fill="#215884" transform="translate(166,78)"/>
<path d="M0 0 C5.94 0 11.88 0 18 0 C21.233 3.397 22.247 4.953 24 9 C25.087 10.651 26.214 12.276 27.375 13.875 C28.247 15.118 28.247 15.118 29.137 16.387 C31.125 19.175 33.155 21.931 35.188 24.688 C37.347 27.641 39.412 30.55 41.188 33.75 C42.601 36.285 44.024 38.442 45.75 40.75 C48 44 48 44 48 47 C48.66 47 49.32 47 50 47 C50 31.49 50 15.98 50 0 C54.62 0 59.24 0 64 0 C64 23.76 64 47.52 64 72 C48 72 48 72 44.461 69.035 C43.343 67.124 43.343 67.124 42.375 65.062 C41.989 64.375 41.602 63.687 41.204 62.978 C40.44 61.618 39.699 60.244 38.981 58.859 C37.733 56.495 36.275 54.319 34.75 52.125 C28.875 43.313 28.875 43.313 27.375 41.059 C26.217 39.325 25.047 37.599 23.875 35.875 C17.707 26.417 17.707 26.417 17 22 C16.01 22 15.02 22 14 22 C14 38.5 14 55 14 72 C9.38 72 4.76 72 0 72 C0 48.24 0 24.48 0 0 Z " fill="#225883" transform="translate(241,264)"/>
<path d="M0 0 C1.971 -0.341 1.971 -0.341 4.352 -0.293 C5.628 -0.278 5.628 -0.278 6.93 -0.264 C7.819 -0.239 8.709 -0.213 9.625 -0.188 C10.971 -0.167 10.971 -0.167 12.344 -0.146 C14.563 -0.111 16.781 -0.062 19 0 C19 0.99 19 1.98 19 3 C18.01 3.33 17.02 3.66 16 4 C14.421 5.805 12.907 7.667 11.438 9.562 C10.003 11.411 8.534 13.233 7 15 C6.34 15 5.68 15 5 15 C4.67 15.99 4.34 16.98 4 18 C3.34 18 2.68 18 2 18 C1.66 18.804 1.66 18.804 1.312 19.625 C-0.456 22.825 -2.537 25.29 -5 28 C-5.66 28 -6.32 28 -7 28 C-7.277 31.036 -7.255 32.594 -5.609 35.211 C-4.996 35.925 -4.382 36.639 -3.75 37.375 C-1.138 40.547 1.031 43.598 2.984 47.199 C6.626 53.657 11.137 59.649 15.484 65.641 C17 68 17 68 19 73 C13.39 73 7.78 73 2 73 C2 72.34 2 71.68 2 71 C1.34 71 0.68 71 0 71 C-0.33 69.68 -0.66 68.36 -1 67 C-1.66 67 -2.32 67 -3 67 C-4.223 65.153 -5.354 63.245 -6.438 61.312 C-7.034 60.257 -7.631 59.201 -8.246 58.113 C-8.825 57.086 -9.404 56.059 -10 55 C-11.981 51.482 -11.981 51.482 -14.625 48.5 C-16.472 46.485 -16.64 44.662 -17 42 C-17.99 42 -18.98 42 -20 42 C-20.227 42.536 -20.454 43.072 -20.688 43.625 C-22 46 -22 46 -24.531 48.469 C-28.143 52.744 -27.78 57.505 -27.812 62.875 C-27.838 63.85 -27.863 64.824 -27.889 65.828 C-27.947 68.218 -27.977 70.609 -28 73 C-32.95 73 -37.9 73 -43 73 C-43 49.24 -43 25.48 -43 1 C-38.38 1 -33.76 1 -29 1 C-29 11.23 -29 21.46 -29 32 C-26.417 29.417 -23.837 26.829 -21.312 24.188 C-19 22 -19 22 -17 22 C-16.899 21.407 -16.799 20.814 -16.695 20.203 C-15.873 17.597 -14.87 16.593 -12.875 14.75 C-8.132 10.213 -3.647 5.471 0 0 Z " fill="#215884" transform="translate(368,263)"/>
<path d="M0 0 C2.752 -0.162 5.495 -0.281 8.25 -0.375 C9.027 -0.425 9.805 -0.476 10.605 -0.527 C12.882 -0.586 14.79 -0.56 17 0 C21 4.552 21 4.552 21 8 C21.99 8.33 22.98 8.66 24 9 C25.211 11.004 25.211 11.004 26.375 13.562 C29.855 21.926 29.855 21.926 36 28 C36.33 26.68 36.66 25.36 37 24 C37.66 24 38.32 24 39 24 C39.206 23.216 39.412 22.433 39.625 21.625 C41.16 17.579 43.135 14.177 45.473 10.547 C47.053 8.098 47.053 8.098 47.871 5.578 C48.961 2.847 49.543 1.675 52 0 C57.932 -1.005 64.035 -0.446 70 0 C64.379 9.71 58.098 18.973 51.793 28.246 C49.901 31.016 49.901 31.016 48.438 34.312 C47 37 47 37 44 38 C42.584 41.451 42.793 45.273 42.684 48.953 C42.663 49.613 42.642 50.274 42.621 50.954 C42.555 53.052 42.496 55.151 42.438 57.25 C42.394 58.677 42.351 60.104 42.307 61.531 C42.199 65.021 42.1 68.51 42 72 C37.05 72 32.1 72 27 72 C27.044 70.008 27.088 68.017 27.133 65.965 C27.214 50.369 26.902 39.058 16 27 C12 21.407 12 21.407 12 19 C11.01 18.67 10.02 18.34 9 18 C6.594 15.498 5.924 13.719 5 10.312 C4.67 9.219 4.34 8.126 4 7 C3.01 6.67 2.02 6.34 1 6 C0.67 4.02 0.34 2.04 0 0 Z " fill="#225782" transform="translate(159,264)"/>
<path d="M0 0 C9.002 0.04 13.319 2.66 22 7 C21.67 30.43 21.34 53.86 21 78 C18.234 78.922 16.617 79.118 13.77 79.098 C12.967 79.094 12.165 79.091 11.338 79.088 C10.505 79.08 9.671 79.071 8.812 79.062 C7.968 79.058 7.123 79.053 6.252 79.049 C4.168 79.037 2.084 79.019 0 79 C-1.487 76.027 -1.127 73.345 -1.129 70.028 C-1.131 69.31 -1.133 68.593 -1.135 67.854 C-1.139 65.477 -1.136 63.1 -1.133 60.723 C-1.133 59.074 -1.134 57.425 -1.136 55.775 C-1.137 52.316 -1.135 48.857 -1.13 45.398 C-1.125 40.961 -1.128 36.525 -1.134 32.088 C-1.138 28.681 -1.136 25.275 -1.134 21.868 C-1.133 20.232 -1.134 18.596 -1.136 16.961 C-1.139 14.674 -1.135 12.388 -1.129 10.102 C-1.129 8.8 -1.128 7.498 -1.127 6.157 C-1 3 -1 3 0 0 Z " fill="#205985" transform="translate(214,107)"/>
<path d="M0 0 C4.95 0 9.9 0 15 0 C15 19.14 15 38.28 15 58 C25.56 58 36.12 58 47 58 C47 62.62 47 67.24 47 72 C31.49 72 15.98 72 0 72 C0 48.24 0 24.48 0 0 Z " fill="#205984" transform="translate(114,264)"/>
<path d="M0 0 C7.26 0 14.52 0 22 0 C22 0.66 22 1.32 22 2 C22.887 2.062 23.774 2.124 24.688 2.188 C28.838 3.206 30.317 4.721 33 8 C35.937 14.069 36.031 20.84 34.418 27.348 C31.997 33.085 27.543 36.408 22 39 C18.094 39.672 14.385 39.577 10.438 39.375 C6.993 39.251 3.549 39.127 0 39 C0 26.13 0 13.26 0 0 Z " fill="#215884" transform="translate(114,357)"/>
<path d="M0 0 C2.004 1.582 2.004 1.582 2.789 4.258 C2.895 5.408 2.895 5.408 3.004 6.582 C0.004 8.582 0.004 8.582 -2.371 8.395 C-4.996 7.582 -4.996 7.582 -7.246 5.957 C-11.264 3.948 -14.744 4.255 -18.996 5.582 C-22.471 8.97 -23.9 11.453 -24.309 16.27 C-24.257 21.028 -22.705 23.712 -19.996 27.582 C-15.867 30.335 -12.503 29.853 -7.684 29.332 C-5.823 28.692 -5.823 28.692 -4.809 26.707 C-4.161 25.015 -3.569 23.301 -2.996 21.582 C-5.966 21.582 -8.936 21.582 -11.996 21.582 C-11.996 19.602 -11.996 17.622 -11.996 15.582 C-6.386 15.582 -0.776 15.582 5.004 15.582 C5.326 22.662 5.012 26.788 0.48 32.504 C-2.656 35.813 -4.808 37.428 -9.41 38.023 C-12.635 38.02 -15.787 37.89 -18.996 37.582 C-18.996 36.922 -18.996 36.262 -18.996 35.582 C-20.141 35.396 -20.141 35.396 -21.309 35.207 C-23.996 34.582 -23.996 34.582 -26.996 32.582 C-26.996 31.922 -26.996 31.262 -26.996 30.582 C-27.656 30.582 -28.316 30.582 -28.996 30.582 C-33.478 23.018 -33.721 17.417 -32.434 8.832 C-29.948 3.212 -25.655 0.069 -20.059 -2.293 C-12.262 -4.777 -7.179 -3.453 0 0 Z " fill="#29567F" transform="translate(223.99609375,359.41796875)"/>
<path d="M0 0 C2.97 0 5.94 0 9 0 C12.445 8.503 15.802 17.03 18.995 25.631 C20.01 28.367 21.036 31.085 22.172 33.773 C23 36 23 36 23 39 C20.03 39 17.06 39 14 39 C13.34 36.36 12.68 33.72 12 31 C6.72 31 1.44 31 -4 31 C-4.66 33.64 -5.32 36.28 -6 39 C-8.64 39 -11.28 39 -14 39 C-13.322 33.409 -11.519 28.393 -9.625 23.125 C-9.321 22.265 -9.017 21.405 -8.703 20.52 C-6.858 15.325 -4.95 10.156 -3 5 C-2.34 5 -1.68 5 -1 5 C-0.67 3.35 -0.34 1.7 0 0 Z " fill="#235880" transform="translate(326,357)"/>
<path d="M0 0 C20.13 0 40.26 0 61 0 C61 0.33 61 0.66 61 1 C32.29 1.495 32.29 1.495 3 2 C3 9.92 3 17.84 3 26 C3.66 26.66 4.32 27.32 5 28 C4.34 28 3.68 28 3 28 C3 54.07 3 80.14 3 107 C4.98 106.505 4.98 106.505 7 106 C12.28 106 17.56 106 23 106 C23.33 82.9 23.66 59.8 24 36 C24.99 36 25.98 36 27 36 C27 60.09 27 84.18 27 109 C18.09 109 9.18 109 0 109 C0 73.03 0 37.06 0 0 Z " fill="#2D5476" transform="translate(211,79)"/>
<path d="M0 0 C1.454 1.021 1.454 1.021 2.938 2.062 C5.944 4.385 5.944 4.385 9.875 3.75 C11.422 3.379 11.422 3.379 13 3 C13.33 2.01 13.66 1.02 14 0 C13.845 2.709 13.518 4.466 11.598 6.445 C10.102 7.677 8.554 8.843 7 10 C7.638 10.061 8.276 10.121 8.934 10.184 C9.76 10.267 10.586 10.351 11.438 10.438 C12.673 10.559 12.673 10.559 13.934 10.684 C16 11 16 11 17 12 C17.072 14.296 16.996 16.575 16.938 18.871 C16.852 21.055 16.852 21.055 18 23 C14.83 26.26 11.601 29.222 8 32 C7.34 31.67 6.68 31.34 6 31 C6.949 30.278 7.898 29.556 8.875 28.812 C14.347 24.19 14.39 18.808 15 12 C9.39 12 3.78 12 -2 12 C-2 13.98 -2 15.96 -2 18 C0.97 18 3.94 18 7 18 C5.945 22.219 5.147 23.234 2 26 C-1.1 27.55 -3.579 27.29 -7 27 C-11.275 24.474 -13.305 21.638 -15 17 C-15.728 12.56 -15.371 9.729 -13.312 5.688 C-9.381 1.118 -6.116 -0.874 0 0 Z " fill="#05121D" transform="translate(214,363)"/>
<path d="M0 0 C0.99 0.495 0.99 0.495 2 1 C2.561 32.394 3.099 63.787 3.125 95.188 C3.127 96.266 3.13 97.345 3.133 98.457 C3.138 101.486 3.137 104.514 3.133 107.543 C3.136 108.86 3.136 108.86 3.139 110.205 C3.122 114.583 2.88 118.688 2 123 C3.485 122.505 3.485 122.505 5 122 C5.33 122.33 5.66 122.66 6 123 C7.515 123.232 9.038 123.412 10.562 123.562 C11.802 123.688 11.802 123.688 13.066 123.816 C13.704 123.877 14.343 123.938 15 124 C15 124.33 15 124.66 15 125 C22.686 125.025 30.373 125.043 38.059 125.055 C40.672 125.06 43.285 125.067 45.898 125.075 C49.661 125.088 53.424 125.093 57.188 125.098 C58.93 125.105 58.93 125.105 60.708 125.113 C65.43 125.114 70.003 125.082 74.676 124.369 C76.321 124.186 76.321 124.186 78 124 C78.66 124.66 79.32 125.32 80 126 C75.354 127.808 71.499 128.244 66.526 128.227 C65.425 128.227 65.425 128.227 64.301 128.228 C61.943 128.226 59.585 128.211 57.227 128.195 C55.763 128.192 54.3 128.19 52.837 128.189 C47.433 128.179 42.029 128.151 36.625 128.125 C24.539 128.084 12.452 128.042 0 128 C0 85.76 0 43.52 0 0 Z " fill="#00182D" transform="translate(194,78)"/>
<path d="M0 0 C2.97 0 5.94 0 9 0 C9 10.56 9 21.12 9 32 C14.61 32 20.22 32 26 32 C26 34.64 26 37.28 26 40 C17.42 40 8.84 40 0 40 C0 26.8 0 13.6 0 0 Z " fill="#264C69" transform="translate(364,356)"/>
<path d="M0 0 C10.23 0 20.46 0 31 0 C31 2.31 31 4.62 31 7 C27.37 7 23.74 7 20 7 C20 17.56 20 28.12 20 39 C17.36 39 14.72 39 12 39 C12 28.44 12 17.88 12 7 C8.04 7 4.08 7 0 7 C0 4.69 0 2.38 0 0 Z " fill="#275479" transform="translate(270,357)"/>
<path d="M0 0 C10 0 10 0 14 1 C17.331 4.617 18.797 7.276 19.375 12.188 C18.906 16.957 17.273 20.469 14 24 C10 25 10 25 0 25 C0 16.75 0 8.5 0 0 Z " fill="#04101D" transform="translate(122,364)"/>
<path d="M0 0 C8.58 0 17.16 0 26 0 C26 0.33 26 0.66 26 1 C18.08 1 10.16 1 2 1 C1.977 17.231 1.959 33.461 1.948 49.692 C1.943 57.23 1.936 64.768 1.925 72.306 C1.915 78.886 1.908 85.466 1.906 92.045 C1.905 95.521 1.902 98.996 1.894 102.471 C1.823 121.907 1.823 121.907 2.737 141.316 C2.999 145.074 2.962 148.345 2 152 C2.99 151.916 3.98 151.832 5 151.746 C6.333 151.643 7.667 151.54 9 151.438 C10.299 151.333 11.599 151.229 12.938 151.121 C15.644 150.904 17.92 151.123 20.644 151.489 C24.755 152.014 28.835 152.171 32.977 152.205 C33.729 152.215 34.481 152.225 35.256 152.235 C37.712 152.267 40.169 152.292 42.625 152.316 C44.34 152.337 46.055 152.358 47.77 152.379 C52.261 152.434 56.752 152.484 61.244 152.532 C65.836 152.583 70.428 152.638 75.02 152.693 C84.013 152.801 93.006 152.902 102 153 C102 153.33 102 153.66 102 154 C68.34 154 34.68 154 0 154 C0 103.18 0 52.36 0 0 Z " fill="#2E5476" transform="translate(167,79)"/>
<path d="M0 0 C4.95 0 9.9 0 15 0 C15 19.14 15 38.28 15 58 C25.56 58 36.12 58 47 58 C47 62.62 47 67.24 47 72 C31.49 72 15.98 72 0 72 C0 48.24 0 24.48 0 0 Z M2 2 C2 24.77 2 47.54 2 71 C16.19 70.67 30.38 70.34 45 70 C45 66.37 45 62.74 45 59 C30.15 58.505 30.15 58.505 15 58 C14.67 39.19 14.34 20.38 14 1 C9.986 1 5.994 1.601 2 2 Z " fill="#2B5574" transform="translate(114,264)"/>
<path d="M0 0 C3.369 3.088 5.592 5.834 7.762 9.906 C9.943 13.594 12.607 16.943 15.195 20.352 C17 23 17 23 19 28 C13.39 28 7.78 28 2 28 C2 27.34 2 26.68 2 26 C1.34 26 0.68 26 0 26 C-0.33 24.68 -0.66 23.36 -1 22 C-1.66 22 -2.32 22 -3 22 C-4.24 20.087 -5.393 18.118 -6.5 16.125 C-8.868 11.774 -8.868 11.774 -12 8 C-11.625 5.875 -11.625 5.875 -11 4 C-10.34 4.33 -9.68 4.66 -9 5 C-8.845 6.454 -8.845 6.454 -8.688 7.938 C-8.461 8.948 -8.234 9.959 -8 11 C-5.557 12.311 -5.557 12.311 -3 13 C-2.67 13.66 -2.34 14.32 -2 15 C0.104 9.871 0.218 5.439 0 0 Z " fill="#245780" transform="translate(368,308)"/>
<path d="M0 0 C-4.394 7.523 -9.117 14.787 -14 22 C-14.33 21.01 -14.66 20.02 -15 19 C-15.33 18.34 -15.66 17.68 -16 17 C-18.322 16.593 -20.657 16.256 -23 16 C-23.268 16.639 -23.536 17.279 -23.812 17.938 C-25 20 -25 20 -28 21 C-28.083 21.743 -28.165 22.485 -28.25 23.25 C-29.159 26.585 -30.237 27.948 -33 30 C-35.25 29.75 -35.25 29.75 -37 29 C-36.67 28.34 -36.34 27.68 -36 27 C-35.34 27.33 -34.68 27.66 -34 28 C-33.67 26.68 -33.34 25.36 -33 24 C-32.34 24 -31.68 24 -31 24 C-30.794 23.216 -30.588 22.433 -30.375 21.625 C-28.84 17.579 -26.865 14.177 -24.527 10.547 C-22.947 8.098 -22.947 8.098 -22.129 5.578 C-18.589 -3.295 -7.957 -0.595 0 0 Z " fill="#225783" transform="translate(229,264)"/>
<path d="M0 0 C2.64 0 5.28 0 8 0 C8 12.87 8 25.74 8 39 C5.36 39 2.72 39 0 39 C0 26.13 0 13.26 0 0 Z " fill="#23557B" transform="translate(247,357)"/>
<path d="M0 0 C2.64 0 5.28 0 8 0 C8 12.87 8 25.74 8 39 C5.36 39 2.72 39 0 39 C0 26.13 0 13.26 0 0 Z " fill="#2C5577" transform="translate(166,357)"/>
<path d="M0 0 C0 19.47 0 38.94 0 59 C10.23 59 20.46 59 31 59 C31 59.33 31 59.66 31 60 C20.44 60 9.88 60 -1 60 C-1 40.86 -1 21.72 -1 2 C-5.95 2 -10.9 2 -16 2 C-16 25.76 -16 49.52 -16 74 C-0.82 74 14.36 74 30 74 C30 74.33 30 74.66 30 75 C14.16 75 -1.68 75 -18 75 C-19.125 61.497 -19.125 61.497 -19.129 56.269 C-19.133 55.099 -19.136 53.928 -19.139 52.722 C-19.137 51.503 -19.135 50.283 -19.133 49.027 C-19.134 47.742 -19.135 46.456 -19.136 45.132 C-19.137 42.439 -19.135 39.745 -19.13 37.052 C-19.125 33.602 -19.128 30.152 -19.134 26.703 C-19.138 23.394 -19.135 20.086 -19.133 16.777 C-19.135 15.54 -19.137 14.302 -19.139 13.028 C-19.136 11.885 -19.133 10.743 -19.129 9.566 C-19.129 8.561 -19.128 7.556 -19.127 6.52 C-19 4 -19 4 -18 1 C-15.375 0.833 -12.75 0.666 -10.125 0.5 C-9.005 0.428 -9.005 0.428 -7.863 0.355 C-2.227 0 -2.227 0 0 0 Z " fill="#092037" transform="translate(130,262)"/>
<path d="M0 0 C4.298 10.612 4.298 10.612 4.062 15 C4.042 15.99 4.021 16.98 4 18 C4.99 18.99 5.98 19.98 7 21 C1.72 21 -3.56 21 -9 21 C-9.66 23.64 -10.32 26.28 -11 29 C-13.64 29 -16.28 29 -19 29 C-18.494 24.645 -17.616 21.558 -15 18 C-14.34 18 -13.68 18 -13 18 C-12.897 17.361 -12.794 16.721 -12.688 16.062 C-12.461 15.382 -12.234 14.701 -12 14 C-11.01 13.67 -10.02 13.34 -9 13 C-8.286 10.681 -7.625 8.345 -7 6 C-3.87 0 -3.87 0 0 0 Z " fill="#24547C" transform="translate(331,367)"/>
<path d="M0 0 C7.26 0 14.52 0 22 0 C22 0.66 22 1.32 22 2 C22.887 2.062 23.774 2.124 24.688 2.188 C28.838 3.206 30.317 4.721 33 8 C34.494 10.783 35.132 12.188 34.625 15.312 C34.419 15.869 34.213 16.426 34 17 C34 16.01 34 15.02 34 14 C33.01 13.67 32.02 13.34 31 13 C30.536 11.515 30.536 11.515 30.062 10 C29.712 9.01 29.361 8.02 29 7 C26.982 6.267 26.982 6.267 25 6 C25.289 6.641 25.577 7.281 25.875 7.941 C28.099 13.123 29.689 17.256 29 23 C28 25.438 28 25.438 27 27 C26.34 27 25.68 27 25 27 C25.165 26.484 25.33 25.969 25.5 25.438 C26.503 20.547 26.17 15.827 25 11 C24.01 10.67 23.02 10.34 22 10 C22 9.34 22 8.68 22 8 C16.06 7.67 10.12 7.34 4 7 C4.33 6.34 4.66 5.68 5 5 C5.66 5 6.32 5 7 5 C7 4.34 7 3.68 7 3 C5.35 3 3.7 3 2 3 C2.005 3.954 2.01 4.907 2.016 5.89 C2.034 9.429 2.045 12.968 2.055 16.507 C2.06 18.039 2.067 19.57 2.075 21.102 C2.088 23.304 2.093 25.505 2.098 27.707 C2.103 28.392 2.108 29.076 2.113 29.781 C2.114 32.809 1.966 35.102 1 38 C7.93 38 14.86 38 22 38 C22 38.33 22 38.66 22 39 C14.74 39 7.48 39 0 39 C0 26.13 0 13.26 0 0 Z " fill="#285577" transform="translate(114,357)"/>
<path d="M0 0 C5.94 0 11.88 0 18 0 C19.32 2.64 20.64 5.28 22 8 C18 6 18 6 16.605 4.418 C14.293 2.375 12.348 2.491 9.312 2.312 C8.319 2.247 7.325 2.181 6.301 2.113 C5.542 2.076 4.782 2.039 4 2 C2.528 24.972 2.905 47.994 3 71 C5.97 71 8.94 71 12 71 C12.33 55.49 12.66 39.98 13 24 C13.33 24 13.66 24 14 24 C14 39.84 14 55.68 14 72 C9.38 72 4.76 72 0 72 C0 48.24 0 24.48 0 0 Z " fill="#295476" transform="translate(241,264)"/>
<path d="M0 0 C16.83 0 33.66 0 51 0 C51 0.66 51 1.32 51 2 C43.74 2.66 36.48 3.32 29 4 C27.421 9.526 26.739 12.887 26.681 18.404 C26.671 19.107 26.661 19.811 26.651 20.535 C26.62 22.835 26.603 25.134 26.586 27.434 C26.567 29.038 26.548 30.642 26.527 32.246 C26.476 36.45 26.436 40.653 26.399 44.857 C26.359 49.154 26.308 53.451 26.258 57.748 C26.161 66.165 26.077 74.583 26 83 C25.67 83 25.34 83 25 83 C25 58.91 25 34.82 25 10 C23.02 9.34 21.04 8.68 19 8 C17.693 7.364 16.399 6.7 15.125 6 C12.334 4.553 9.751 3.583 6.688 2.875 C3 2 3 2 0 0 Z " fill="#041C34" transform="translate(213,105)"/>
<path d="M0 0 C2.004 1.582 2.004 1.582 2.789 4.258 C2.895 5.408 2.895 5.408 3.004 6.582 C0.004 8.582 0.004 8.582 -2.371 8.395 C-4.996 7.582 -4.996 7.582 -7.266 6.074 C-10.435 4.342 -12.722 4.092 -16.309 3.895 C-17.912 3.796 -17.912 3.796 -19.547 3.695 C-20.355 3.658 -21.163 3.621 -21.996 3.582 C-21.996 2.922 -21.996 2.262 -21.996 1.582 C-22.656 1.582 -23.316 1.582 -23.996 1.582 C-24.326 2.902 -24.656 4.222 -24.996 5.582 C-25.656 5.582 -26.316 5.582 -26.996 5.582 C-27.656 8.222 -28.316 10.862 -28.996 13.582 C-29.326 13.582 -29.656 13.582 -29.996 13.582 C-30.077 15.019 -30.135 16.456 -30.184 17.895 C-30.218 18.695 -30.253 19.496 -30.289 20.32 C-29.927 23.115 -29 23.701 -26.996 25.582 C-26.309 29.27 -26.309 29.27 -25.996 32.582 C-26.326 31.922 -26.656 31.262 -26.996 30.582 C-27.656 30.582 -28.316 30.582 -28.996 30.582 C-33.478 23.018 -33.721 17.417 -32.434 8.832 C-29.948 3.212 -25.655 0.069 -20.059 -2.293 C-12.262 -4.777 -7.179 -3.453 0 0 Z " fill="#26577E" transform="translate(223.99609375,359.41796875)"/>
<path d="M0 0 C-7.445 4.71 -14.301 5.133 -22.961 5.281 C-24.665 5.319 -26.37 5.357 -28.074 5.395 C-30.741 5.448 -33.407 5.501 -36.074 5.552 C-38.661 5.604 -41.249 5.661 -43.836 5.719 C-44.64 5.732 -45.444 5.746 -46.273 5.76 C-49.939 5.502 -49.939 5.502 -53 7 C-56 7.125 -56 7.125 -59 7 C-59.495 6.505 -59.495 6.505 -60 6 C-61.739 5.922 -63.482 5.914 -65.222 5.934 C-66.337 5.944 -67.452 5.954 -68.6 5.964 C-69.814 5.978 -71.027 5.993 -72.277 6.008 C-74.817 6.025 -77.357 6.042 -79.896 6.059 C-83.924 6.09 -87.951 6.124 -91.978 6.171 C-95.849 6.214 -99.719 6.237 -103.59 6.258 C-104.801 6.276 -106.013 6.295 -107.261 6.314 C-108.379 6.318 -109.497 6.321 -110.648 6.325 C-111.636 6.334 -112.623 6.344 -113.64 6.354 C-114.419 6.237 -115.198 6.12 -116 6 C-116.66 5.01 -117.32 4.02 -118 3 C-116.738 2.994 -115.477 2.988 -114.177 2.982 C-102.246 2.925 -90.316 2.852 -78.385 2.764 C-72.252 2.72 -66.12 2.68 -59.987 2.654 C-54.061 2.627 -48.134 2.587 -42.208 2.537 C-39.955 2.52 -37.703 2.509 -35.45 2.502 C-19.646 2.529 -19.646 2.529 -4.202 -0.459 C-2 -1 -2 -1 0 0 Z " fill="#011527" transform="translate(284,230)"/>
<path d="M0 0 C4.95 0 9.9 0 15 0 C16.607 3.215 16.057 6.436 16 10 C16.66 10 17.32 10 18 10 C17.893 18.049 17.78 26.099 17.661 34.148 C17.605 37.885 17.552 41.622 17.503 45.36 C17.455 48.965 17.403 52.57 17.347 56.175 C17.327 57.552 17.308 58.929 17.291 60.306 C17.267 62.232 17.236 64.157 17.205 66.082 C17.19 67.179 17.174 68.276 17.158 69.406 C17 72 17 72 16 74 C13.363 74.37 10.838 74.606 8.188 74.75 C7.462 74.805 6.737 74.861 5.99 74.918 C2.122 75.152 -0.733 75.229 -4 73 C-3.67 72.01 -3.34 71.02 -3 70 C-2.67 70.66 -2.34 71.32 -2 72 C3.28 72.33 8.56 72.66 14 73 C14 49.24 14 25.48 14 1 C9.38 1 4.76 1 0 1 C0 0.67 0 0.34 0 0 Z " fill="#071E32" transform="translate(291,263)"/>
<path d="M0 0 C4.62 0 9.24 0 14 0 C14 9.57 14 19.14 14 29 C13.67 29 13.34 29 13 29 C12.67 20.42 12.34 11.84 12 3 C8.7 2.34 5.4 1.68 2 1 C1.975 8.581 1.957 16.161 1.945 23.742 C1.94 26.32 1.933 28.898 1.925 31.476 C1.912 35.185 1.907 38.893 1.902 42.602 C1.897 43.752 1.892 44.902 1.887 46.087 C1.887 47.168 1.887 48.248 1.886 49.362 C1.884 50.308 1.882 51.254 1.88 52.228 C1.946 55.083 1.946 55.083 2.538 58.192 C3.028 61.171 2.599 63.078 2 66 C2.377 68.725 2.377 68.725 3 71 C6.3 71 9.6 71 13 71 C12.988 69.603 12.977 68.205 12.965 66.766 C12.955 64.927 12.946 63.089 12.938 61.25 C12.929 60.33 12.921 59.409 12.912 58.461 C12.909 57.571 12.906 56.682 12.902 55.766 C12.897 54.949 12.892 54.132 12.886 53.29 C12.997 51.06 13.379 49.139 14 47 C14.99 47 15.98 47 17 47 C17.103 46.402 17.206 45.804 17.312 45.188 C18.133 42.576 18.743 41.557 21 40 C24.188 39.812 24.188 39.812 27 40 C30 45.625 30 45.625 30 49 C27.101 46.605 26.498 44.688 26 41 C25.01 41 24.02 41 23 41 C22.773 41.536 22.546 42.072 22.312 42.625 C21 45 21 45 18.469 47.469 C14.857 51.744 15.22 56.505 15.188 61.875 C15.162 62.85 15.137 63.824 15.111 64.828 C15.053 67.218 15.023 69.609 15 72 C10.05 72 5.1 72 0 72 C0 48.24 0 24.48 0 0 Z " fill="#2D5575" transform="translate(325,264)"/>
<path d="M0 0 C4.62 0 9.24 0 14 0 C14 23.76 14 47.52 14 72 C8.72 72 3.44 72 -2 72 C-6.5 66.938 -6.5 66.938 -8 63 C-6.515 62.505 -6.515 62.505 -5 62 C-2.672 64.834 -1.926 66.295 -1 70 C5.93 70.495 5.93 70.495 13 71 C12.929 69.932 12.857 68.865 12.783 67.764 C11.914 53.776 11.884 39.824 11.938 25.812 C11.943 23.49 11.947 21.168 11.951 18.846 C11.962 13.23 11.979 7.615 12 2 C11.01 2.33 10.02 2.66 9 3 C6.991 2.724 4.988 2.398 3 2 C2.98 3.262 2.96 4.524 2.94 5.824 C2.864 10.494 2.775 15.164 2.683 19.834 C2.644 21.858 2.609 23.881 2.578 25.905 C2.533 28.809 2.475 31.713 2.414 34.617 C2.397 35.98 2.397 35.98 2.379 37.37 C2.359 38.211 2.339 39.051 2.319 39.917 C2.306 40.659 2.292 41.401 2.278 42.165 C2 44 2 44 0 46 C0 30.82 0 15.64 0 0 Z " fill="#2F5675" transform="translate(291,264)"/>
<path d="M0 0 C5.61 0 11.22 0 17 0 C17.322 7.08 17.008 11.206 12.477 16.922 C9.34 20.231 7.188 21.846 2.586 22.441 C-0.639 22.438 -3.791 22.308 -7 22 C-7 21.67 -7 21.34 -7 21 C-6.078 20.944 -6.078 20.944 -5.137 20.887 C-4.328 20.821 -3.52 20.755 -2.688 20.688 C-1.887 20.629 -1.086 20.571 -0.262 20.512 C2.363 19.918 3.308 19.042 5 17 C4.01 16.01 3.02 15.02 2 14 C2.928 13.876 2.928 13.876 3.875 13.75 C6.148 13.194 6.148 13.194 7.188 11.125 C7.835 9.432 8.427 7.719 9 6 C6.03 6 3.06 6 0 6 C0 4.02 0 2.04 0 0 Z " fill="#235882" transform="translate(212,375)"/>
<path d="M0 0 C2.475 0.495 2.475 0.495 5 1 C5.289 1.969 5.577 2.939 5.875 3.938 C6.642 7.107 6.642 7.107 9 8 C10.81 13.431 10.701 18.097 8.312 23.25 C6.438 26.663 4.268 28.821 1 31 C-0.333 30.333 -1.667 29.667 -3 29 C-3 28.34 -3 27.68 -3 27 C-9.435 27.495 -9.435 27.495 -16 28 C-16.33 27.34 -16.66 26.68 -17 26 C-16.013 25.974 -15.025 25.948 -14.008 25.922 C-12.726 25.865 -11.445 25.808 -10.125 25.75 C-8.849 25.704 -7.573 25.657 -6.258 25.609 C-2.908 25.374 -2.908 25.374 -1.555 22.953 C-1.372 22.309 -1.189 21.664 -1 21 C-0.01 21 0.98 21 2 21 C4.37 13.594 2.393 7.08 0 0 Z " fill="#285679" transform="translate(139,363)"/>
<path d="M0 0 C0.833 0.005 1.665 0.01 2.523 0.016 C3.422 0.019 4.321 0.022 5.248 0.026 C6.666 0.038 6.666 0.038 8.113 0.051 C9.062 0.056 10.012 0.06 10.99 0.065 C13.344 0.077 15.697 0.093 18.051 0.114 C18.051 0.774 18.051 1.434 18.051 2.114 C19.041 2.114 20.031 2.114 21.051 2.114 C21.381 4.424 21.711 6.734 22.051 9.114 C19.046 6.519 18.682 5.192 17.051 1.114 C11.111 1.114 5.171 1.114 -0.949 1.114 C-0.949 24.874 -0.949 48.634 -0.949 73.114 C3.671 73.114 8.291 73.114 13.051 73.114 C13.051 56.614 13.051 40.114 13.051 23.114 C14.041 23.114 15.031 23.114 16.051 23.114 C16.711 25.094 17.371 27.074 18.051 29.114 C17.061 28.454 16.071 27.794 15.051 27.114 C14.721 42.624 14.391 58.134 14.051 74.114 C11.32 75.479 9.095 75.246 6.051 75.239 C4.442 75.242 4.442 75.242 2.801 75.246 C0.051 75.114 0.051 75.114 -1.949 74.114 C-2.103 64.613 -2.251 55.112 -2.392 45.611 C-2.458 41.2 -2.526 36.789 -2.598 32.378 C-2.667 28.125 -2.731 23.871 -2.792 19.618 C-2.816 17.991 -2.842 16.365 -2.87 14.739 C-2.908 12.468 -2.941 10.198 -2.971 7.928 C-2.991 6.634 -3.011 5.339 -3.032 4.005 C-2.923 0.17 -2.923 0.17 0 0 Z " fill="#041B32" transform="translate(241.949462890625,262.886474609375)"/>
<path d="M0 0 C0.66 0 1.32 0 2 0 C2.33 9.24 2.66 18.48 3 28 C7.314 29.726 8.97 30.241 13.312 30.125 C14.196 30.107 15.079 30.089 15.988 30.07 C16.984 30.036 16.984 30.036 18 30 C18 31.32 18 32.64 18 34 C14.854 34.029 11.708 34.047 8.562 34.062 C7.665 34.071 6.767 34.079 5.842 34.088 C4.561 34.093 4.561 34.093 3.254 34.098 C2.463 34.103 1.672 34.108 0.858 34.114 C-1 34 -1 34 -2 33 C-2.218 28.6 -2.186 24.195 -2.185 19.79 C-2.187 17.575 -2.206 15.361 -2.225 13.146 C-2.228 11.745 -2.23 10.343 -2.23 8.941 C-2.235 7.66 -2.239 6.378 -2.243 5.057 C-2 2 -2 2 0 0 Z " fill="#205984" transform="translate(368,360)"/>
<path d="M0 0 C0.843 0.002 1.686 0.004 2.555 0.006 C3.431 0.018 4.308 0.03 5.211 0.043 C6.537 0.044 6.537 0.044 7.891 0.045 C14.446 0.09 14.446 0.09 15.586 1.23 C15.658 3.526 15.582 5.806 15.523 8.102 C15.438 10.285 15.438 10.285 16.586 12.23 C13.416 15.491 10.187 18.453 6.586 21.23 C5.926 20.9 5.266 20.57 4.586 20.23 C5.535 19.509 6.483 18.787 7.461 18.043 C12.933 13.421 12.976 8.039 13.586 1.23 C7.976 1.23 2.366 1.23 -3.414 1.23 C-3.414 3.21 -3.414 5.19 -3.414 7.23 C-0.444 7.23 2.526 7.23 5.586 7.23 C4.531 11.45 3.733 12.465 0.586 15.23 C-2.515 16.781 -4.993 16.52 -8.414 16.23 C-11.352 14.355 -11.352 14.355 -13.414 12.23 C-13.414 11.57 -13.414 10.91 -13.414 10.23 C-10.444 10.725 -10.444 10.725 -7.414 11.23 C-7.449 10.604 -7.484 9.978 -7.52 9.332 C-7.547 8.515 -7.574 7.697 -7.602 6.855 C-7.636 6.043 -7.671 5.231 -7.707 4.395 C-7.61 3.68 -7.514 2.966 -7.414 2.23 C-4.281 0.142 -3.563 -0.019 0 0 Z " fill="#05101F" transform="translate(215.4140625,373.76953125)"/>
<path d="M0 0 C5.94 0 11.88 0 18 0 C19 2 19 2 18.375 5 C17 8 17 8 14.375 9.375 C13.591 9.581 12.808 9.788 12 10 C12.041 11.093 12.083 12.186 12.125 13.312 C12 17 12 17 10 20 C10.33 20.66 10.66 21.32 11 22 C9.688 23.5 9.688 23.5 8 25 C7.01 25 6.02 25 5 25 C4.588 25.969 4.175 26.939 3.75 27.938 C2 31 2 31 -0.188 31.875 C-0.786 31.916 -1.384 31.957 -2 32 C-2.227 33.052 -2.454 34.104 -2.688 35.188 C-3.569 38.408 -4.133 39.13 -6.688 41.625 C-7.451 42.409 -8.214 43.192 -9 44 C-8.86 46.707 -8.86 46.707 -8 49 C-8.495 49.495 -8.495 49.495 -9 50 C-9.157 51.706 -9.251 53.417 -9.316 55.129 C-9.358 56.163 -9.4 57.198 -9.443 58.264 C-9.483 59.352 -9.522 60.441 -9.562 61.562 C-9.606 62.655 -9.649 63.747 -9.693 64.873 C-9.8 67.582 -9.902 70.291 -10 73 C-10.33 73 -10.66 73 -11 73 C-11.05 68.801 -11.086 64.602 -11.11 60.402 C-11.12 58.975 -11.134 57.547 -11.151 56.119 C-11.175 54.064 -11.187 52.009 -11.195 49.953 C-11.206 48.717 -11.216 47.481 -11.227 46.208 C-10.936 42.098 -10.114 40.04 -7.125 37.25 C-5.189 35.2 -4.353 33.865 -3.188 31.375 C-1.219 27.233 1.247 23.66 3.918 19.941 C6.496 16.299 8.969 12.592 11.438 8.875 C11.887 8.199 12.336 7.523 12.799 6.826 C13.867 5.218 14.934 3.609 16 2 C10.72 1.67 5.44 1.34 0 1 C0 0.67 0 0.34 0 0 Z " fill="#08192C" transform="translate(212,263)"/>
<path d="M0 0 C0.66 0.33 1.32 0.66 2 1 C3.537 1.225 5.08 1.408 6.625 1.562 C7.442 1.646 8.26 1.73 9.102 1.816 C9.728 1.877 10.355 1.938 11 2 C11 2.33 11 2.66 11 3 C18.686 3.025 26.373 3.043 34.059 3.055 C36.672 3.06 39.285 3.067 41.898 3.075 C45.661 3.088 49.424 3.093 53.188 3.098 C54.93 3.105 54.93 3.105 56.708 3.113 C61.43 3.114 66.003 3.082 70.676 2.369 C71.773 2.247 72.87 2.125 74 2 C74.99 2.99 74.99 2.99 76 4 C71.491 5.735 67.761 6.249 62.941 6.243 C61.922 6.246 61.922 6.246 60.884 6.249 C58.658 6.252 56.433 6.242 54.207 6.23 C52.653 6.229 51.1 6.229 49.546 6.229 C46.299 6.228 43.052 6.219 39.805 6.206 C35.642 6.189 31.479 6.185 27.316 6.186 C24.112 6.185 20.908 6.18 17.704 6.173 C16.168 6.17 14.633 6.168 13.098 6.167 C10.955 6.165 8.813 6.156 6.671 6.145 C5.452 6.141 4.234 6.138 2.978 6.134 C0 6 0 6 -3 5 C-2.625 3.062 -2.625 3.062 -2 1 C-1.34 0.67 -0.68 0.34 0 0 Z " fill="#001328" transform="translate(198,200)"/>
<path d="M0 0 C-0.875 4.875 -0.875 4.875 -2 6 C-2.146 7.902 -2.227 9.808 -2.281 11.715 C-2.319 12.876 -2.356 14.036 -2.395 15.232 C-2.429 16.455 -2.464 17.678 -2.5 18.938 C-2.569 21.343 -2.641 23.748 -2.719 26.152 C-2.749 27.225 -2.779 28.297 -2.811 29.402 C-3 32 -3 32 -4 34 C-4.99 34 -5.98 34 -7 34 C-7.33 34.66 -7.66 35.32 -8 36 C-9.146 32.563 -9.039 30.087 -8.914 26.469 C-8.87 25.184 -8.826 23.898 -8.781 22.574 C-8.755 21.906 -8.73 21.237 -8.703 20.548 C-8.625 18.508 -8.558 16.467 -8.492 14.426 C-8.13 4.389 -8.13 4.389 -7 1 C-4.537 -0.231 -2.72 -0.072 0 0 Z " fill="#235782" transform="translate(292,359)"/>
<path d="M0 0 C1.32 0 2.64 0 4 0 C4.025 5.89 4.043 11.78 4.055 17.67 C4.06 19.673 4.067 21.676 4.075 23.678 C4.088 26.56 4.093 29.442 4.098 32.324 C4.103 33.217 4.108 34.11 4.113 35.03 C4.114 39.153 4.048 42.98 3 47 C2.01 46.67 1.02 46.34 0 46 C0 30.82 0 15.64 0 0 Z " fill="#1E5A81" transform="translate(250,288)"/>
<path d="M0 0 C-8.462 7.205 -22.384 5.269 -32.922 5.195 C-34.519 5.192 -36.116 5.189 -37.713 5.187 C-41.876 5.179 -46.038 5.16 -50.2 5.137 C-54.464 5.117 -58.728 5.108 -62.992 5.098 C-71.328 5.076 -79.664 5.042 -88 5 C-88 4.34 -88 3.68 -88 3 C-86.643 2.991 -86.643 2.991 -85.258 2.982 C-76.696 2.924 -68.135 2.852 -59.573 2.764 C-55.172 2.72 -50.772 2.68 -46.371 2.654 C-42.117 2.627 -37.864 2.587 -33.61 2.537 C-31.994 2.52 -30.378 2.509 -28.762 2.502 C-17.155 2.473 -17.155 2.473 -5.975 -0.459 C-3.629 -1.102 -2.276 -0.77 0 0 Z " fill="#254B6B" transform="translate(282,203)"/>
<path d="M0 0 C20.46 0 40.92 0 62 0 C62 0.33 62 0.66 62 1 C42.2 1 22.4 1 2 1 C2 36.97 2 72.94 2 110 C1.01 109.01 0.02 108.02 -1 107 C-0.505 106.01 -0.505 106.01 0 105 C0.092 103.594 0.122 102.183 0.12 100.773 C0.122 99.887 0.123 99.001 0.124 98.088 C0.119 96.626 0.119 96.626 0.114 95.134 C0.114 94.11 0.114 93.085 0.114 92.03 C0.113 88.632 0.105 85.234 0.098 81.836 C0.096 79.485 0.094 77.133 0.093 74.782 C0.09 68.584 0.08 62.386 0.069 56.189 C0.057 48.757 0.052 41.326 0.046 33.894 C0.037 22.596 0.017 11.298 0 0 Z " fill="#0D2842" transform="translate(209,78)"/>
<path d="M0 0 C4.521 -0.025 9.041 -0.043 13.562 -0.055 C15.1 -0.06 16.639 -0.067 18.177 -0.075 C20.386 -0.088 22.596 -0.093 24.805 -0.098 C25.494 -0.103 26.184 -0.108 26.895 -0.113 C31.772 -0.114 31.772 -0.114 34 1 C34 3.31 34 5.62 34 8 C31.719 9.267 29.897 10.019 27.312 10.5 C26.549 10.665 25.786 10.83 25 11 C23.226 14.548 23.966 18.878 24.039 22.795 C24.114 29.458 24.148 34.469 20 40 C20 29.44 20 18.88 20 8 C23.63 8 27.26 8 31 8 C31 5.69 31 3.38 31 1 C20.77 1 10.54 1 0 1 C0 0.67 0 0.34 0 0 Z " fill="#071E33" transform="translate(270,356)"/>
<path d="M0 0 C1.117 3.719 1.117 3.719 0.062 6.25 C-0.463 7.116 -0.463 7.116 -1 8 C-1.66 8 -2.32 8 -3 8 C-3.33 9.32 -3.66 10.64 -4 12 C-5.65 12.33 -7.3 12.66 -9 13 C-9.289 13.969 -9.577 14.939 -9.875 15.938 C-11 19 -11 19 -13 20 C-13 20.66 -13 21.32 -13 22 C-13.99 22.33 -14.98 22.66 -16 23 C-17.945 25.918 -18.453 27.625 -19 31 C-18.01 31.66 -17.02 32.32 -16 33 C-15.375 35.312 -15.375 35.312 -15 38 C-14.722 39.392 -14.722 39.392 -14.438 40.812 C-14.293 41.534 -14.149 42.256 -14 43 C-16.794 41.603 -17.417 39.697 -19 37 C-19.915 35.832 -20.832 34.665 -21.75 33.5 C-23.43 31.148 -23.985 30.325 -24.125 27.375 C-22.631 24.221 -20.547 22.369 -18 20 C-17.34 19.154 -16.68 18.309 -16 17.438 C-14 15 -14 15 -11.676 13.207 C-8.75 10.794 -6.55 8.212 -4.188 5.25 C-3.002 3.773 -3.002 3.773 -1.793 2.266 C-1.201 1.518 -0.61 0.77 0 0 Z " fill="#051827" transform="translate(384,266)"/>
<path d="M0 0 C0.66 0.66 1.32 1.32 2 2 C0.688 4.938 0.688 4.938 -1 8 C-1.99 8.33 -2.98 8.66 -4 9 C-5.416 12.451 -5.207 16.273 -5.316 19.953 C-5.337 20.613 -5.358 21.274 -5.379 21.954 C-5.445 24.052 -5.504 26.151 -5.562 28.25 C-5.606 29.677 -5.649 31.104 -5.693 32.531 C-5.801 36.021 -5.9 39.51 -6 43 C-10.95 43 -15.9 43 -21 43 C-21 37.39 -21 31.78 -21 26 C-20.01 26.33 -19.02 26.66 -18 27 C-18.012 27.759 -18.023 28.519 -18.035 29.301 C-18.044 30.295 -18.053 31.289 -18.062 32.312 C-18.074 33.299 -18.086 34.285 -18.098 35.301 C-18.123 38.1 -18.123 38.1 -17 41 C-14.03 41.33 -11.06 41.66 -8 42 C-8.016 41.229 -8.031 40.458 -8.048 39.664 C-8.11 36.13 -8.149 32.597 -8.188 29.062 C-8.213 27.85 -8.238 26.638 -8.264 25.389 C-8.348 15.036 -7.232 7.623 0 0 Z " fill="#284D6D" transform="translate(207,293)"/>
<path d="M0 0 C-7.445 4.71 -14.301 5.133 -22.961 5.281 C-24.665 5.319 -26.37 5.357 -28.074 5.395 C-30.741 5.448 -33.407 5.501 -36.074 5.552 C-38.661 5.604 -41.249 5.661 -43.836 5.719 C-44.64 5.732 -45.444 5.746 -46.273 5.76 C-49.939 5.502 -49.939 5.502 -53 7 C-55 7.041 -57 7.043 -59 7 C-59.33 6.01 -59.66 5.02 -60 4 C-54.492 3.228 -49.139 2.845 -43.582 2.789 C-41.981 2.761 -40.38 2.732 -38.779 2.703 C-36.303 2.662 -33.826 2.625 -31.349 2.599 C-21.994 2.49 -13.435 2.078 -4.378 -0.463 C-2 -1 -2 -1 0 0 Z " fill="#001526" transform="translate(284,230)"/>
<path d="M0 0 C8.58 0 17.16 0 26 0 C25.67 3.3 25.34 6.6 25 10 C21.509 8.953 18.336 7.701 15.125 6 C12.334 4.553 9.751 3.583 6.688 2.875 C3 2 3 2 0 0 Z " fill="#08335D" transform="translate(213,105)"/>
<path d="M0 0 C4.983 1.661 7.853 3.815 10.312 8.5 C11.045 11.164 10.947 12.443 10 15 C10 14.01 10 13.02 10 12 C9.01 11.67 8.02 11.34 7 11 C6.536 9.515 6.536 9.515 6.062 8 C5.712 7.01 5.361 6.02 5 5 C2.982 4.267 2.982 4.267 1 4 C1.289 4.641 1.577 5.281 1.875 5.941 C4.099 11.123 5.689 15.256 5 21 C4 23.438 4 23.438 3 25 C2.34 25 1.68 25 1 25 C1.165 24.484 1.33 23.969 1.5 23.438 C2.503 18.547 2.17 13.827 1 9 C0.01 8.67 -0.98 8.34 -2 8 C-2 7.34 -2 6.68 -2 6 C-6.29 5.67 -10.58 5.34 -15 5 C-11.02 3.01 -10.323 2.776 -6.25 3.375 C-5.451 3.486 -4.652 3.597 -3.828 3.711 C-3.225 3.806 -2.622 3.902 -2 4 C-1.34 2.68 -0.68 1.36 0 0 Z " fill="#275273" transform="translate(138,359)"/>
<path d="M0 0 C2.766 -0.267 5.306 -0.348 8.07 -0.293 C9.265 -0.287 9.265 -0.287 10.483 -0.28 C13.031 -0.263 15.578 -0.226 18.125 -0.188 C19.85 -0.172 21.576 -0.159 23.301 -0.146 C27.534 -0.113 31.767 -0.062 36 0 C36 0.66 36 1.32 36 2 C36.66 2.33 37.32 2.66 38 3 C24.8 3 11.6 3 -2 3 C-1.34 2.01 -0.68 1.02 0 0 Z " fill="#021224" transform="translate(213,75)"/>
<path d="M0 0 C0.66 0 1.32 0 2 0 C2 0.66 2 1.32 2 2 C3.98 2 5.96 2 8 2 C4.846 4.716 3.126 5.968 -1 7 C-1.33 12.28 -1.66 17.56 -2 23 C-3.32 23.33 -4.64 23.66 -6 24 C-6.97 21.089 -7.165 19.098 -7.188 16.062 C-7.202 15.208 -7.216 14.353 -7.23 13.473 C-6.776 8.599 -4.342 6.342 -1 3 C-0.67 2.01 -0.34 1.02 0 0 Z " fill="#235682" transform="translate(200,361)"/>
<path d="M0 0 C4.29 0.33 8.58 0.66 13 1 C13 3.31 13 5.62 13 8 C12.67 8 12.34 8 12 8 C12 6.02 12 4.04 12 2 C11.01 2.33 10.02 2.66 9 3 C6.991 2.724 4.988 2.398 3 2 C2.98 3.262 2.96 4.524 2.94 5.824 C2.864 10.494 2.775 15.164 2.683 19.834 C2.644 21.858 2.609 23.881 2.578 25.905 C2.533 28.809 2.475 31.713 2.414 34.617 C2.403 35.526 2.391 36.434 2.379 37.37 C2.359 38.211 2.339 39.051 2.319 39.917 C2.306 40.659 2.292 41.401 2.278 42.165 C2 44 2 44 0 46 C0 30.82 0 15.64 0 0 Z " fill="#2C5577" transform="translate(291,264)"/>
<path d="M0 0 C0.66 0 1.32 0 2 0 C3.022 3.319 3.044 6.183 2.879 9.641 C2.831 10.711 2.782 11.78 2.732 12.883 C2.676 13.994 2.62 15.105 2.562 16.25 C2.51 17.377 2.458 18.503 2.404 19.664 C2.275 22.443 2.14 25.222 2 28 C3.32 28.33 4.64 28.66 6 29 C6.33 19.76 6.66 10.52 7 1 C7.33 1 7.66 1 8 1 C8 11.23 8 21.46 8 32 C5.36 32 2.72 32 0 32 C0 21.44 0 10.88 0 0 Z " fill="#2F5779" transform="translate(282,364)"/>
<path d="M0 0 C2.567 2.567 3.333 5.05 4.625 8.438 C5.071 9.591 5.517 10.745 5.977 11.934 C7 15 7 15 7 18 C4.03 18 1.06 18 -2 18 C-3.659 12.762 -3.659 12.762 -4 10 C-2.688 7.875 -2.688 7.875 -1 6 C-0.28 2.849 -0.28 2.849 0 0 Z " fill="#275274" transform="translate(342,378)"/>
<path d="M0 0 C2.387 0.328 2.387 0.328 5 1 C9.056 7.153 8.29 13.861 8 21 C6.834 21.199 6.834 21.199 5.645 21.402 C2.747 22.057 1.238 23.094 -1 25 C-0.67 23.68 -0.34 22.36 0 21 C0.66 21 1.32 21 2 21 C4.37 13.594 2.393 7.08 0 0 Z " fill="#215B84" transform="translate(139,363)"/>
<path d="M0 0 C2.97 0.495 2.97 0.495 6 1 C6 2.32 6 3.64 6 5 C3.36 5 0.72 5 -2 5 C-2 17.87 -2 30.74 -2 44 C-2.99 43.67 -3.98 43.34 -5 43 C-4.928 42.392 -4.856 41.783 -4.781 41.156 C-3.431 28.404 -3.778 15.748 -5 3 C-4.01 3 -3.02 3 -2 3 C-1.34 2.01 -0.68 1.02 0 0 Z " fill="#011A30" transform="translate(168,352)"/>
<path d="M0 0 C0.66 0 1.32 0 2 0 C2.059 3.625 2.094 7.25 2.125 10.875 C2.142 11.888 2.159 12.901 2.176 13.945 C2.218 20.546 1.577 26.588 0 33 C-0.66 33 -1.32 33 -2 33 C-2.049 28.622 -2.086 24.244 -2.11 19.865 C-2.12 18.375 -2.134 16.885 -2.151 15.396 C-2.175 13.256 -2.186 11.116 -2.195 8.977 C-2.211 7.044 -2.211 7.044 -2.227 5.073 C-2 2 -2 2 0 0 Z " fill="#1E5986" transform="translate(170,360)"/>
<path d="M0 0 C0 0.99 0 1.98 0 3 C-1.32 3 -2.64 3 -4 3 C-4.33 4.32 -4.66 5.64 -5 7 C-5.66 7 -6.32 7 -7 7 C-7.66 9.64 -8.32 12.28 -9 15 C-9.33 15 -9.66 15 -10 15 C-10.081 16.437 -10.139 17.874 -10.188 19.312 C-10.222 20.113 -10.257 20.914 -10.293 21.738 C-9.931 24.533 -9.004 25.119 -7 27 C-6.312 30.688 -6.312 30.688 -6 34 C-6.33 33.34 -6.66 32.68 -7 32 C-7.66 32 -8.32 32 -9 32 C-13.482 24.436 -13.725 18.835 -12.438 10.25 C-10.386 5.613 -5.523 0 0 0 Z " fill="#2B5274" transform="translate(204,358)"/>
<path d="M0 0 C0 2.903 -0.407 4.873 -1.25 7.625 C-1.598 8.82 -1.598 8.82 -1.953 10.039 C-3 12 -3 12 -5.109 12.773 C-5.733 12.848 -6.357 12.923 -7 13 C-7.227 14.052 -7.454 15.104 -7.688 16.188 C-8.569 19.408 -9.133 20.13 -11.688 22.625 C-12.451 23.409 -13.214 24.192 -14 25 C-13.86 27.707 -13.86 27.707 -13 30 C-13.33 30.33 -13.66 30.66 -14 31 C-14.157 32.706 -14.251 34.417 -14.316 36.129 C-14.358 37.163 -14.4 38.198 -14.443 39.264 C-14.483 40.352 -14.522 41.441 -14.562 42.562 C-14.606 43.655 -14.649 44.747 -14.693 45.873 C-14.8 48.582 -14.902 51.291 -15 54 C-15.33 54 -15.66 54 -16 54 C-16.05 49.801 -16.086 45.602 -16.11 41.402 C-16.12 39.975 -16.134 38.547 -16.151 37.119 C-16.175 35.064 -16.187 33.009 -16.195 30.953 C-16.206 29.717 -16.216 28.481 -16.227 27.208 C-15.936 23.098 -15.114 21.04 -12.125 18.25 C-10.168 16.178 -9.308 14.775 -8.125 12.25 C-5.99 7.707 -3.12 3.911 0 0 Z " fill="#04192C" transform="translate(217,282)"/>
<path d="M0 0 C0.895 0.072 1.789 0.144 2.711 0.219 C12.645 0.981 22.128 1.462 32 0 C32 0.99 32 1.98 32 3 C21.77 3 11.54 3 1 3 C1 5.64 1 8.28 1 11 C-0.938 10.312 -0.938 10.312 -3 9 C-3.75 6.375 -3.75 6.375 -4 4 C-3.34 4 -2.68 4 -2 4 C-1.34 2.68 -0.68 1.36 0 0 Z " fill="#011223" transform="translate(269,353)"/>
<path d="M0 0 C0.66 0 1.32 0 2 0 C-0.241 13.173 -11.767 25.041 -22 33 C-22.66 32.34 -23.32 31.68 -24 31 C-23.01 30.67 -22.02 30.34 -21 30 C-20.536 29.01 -20.536 29.01 -20.062 28 C-19 26 -19 26 -16.875 25.25 C-15.947 25.126 -15.947 25.126 -15 25 C-14.629 23.329 -14.629 23.329 -14.25 21.625 C-13 18 -13 18 -11 16.812 C-10.34 16.544 -9.68 16.276 -9 16 C-7.875 14.167 -7.875 14.167 -7 12 C-4.29 7.145 -4.29 7.145 -2 6 C-1.273 4.021 -0.602 2.02 0 0 Z " fill="#295477" transform="translate(328,185)"/>
<path d="M0 0 C2.97 0 5.94 0 9 0 C9 0.66 9 1.32 9 2 C6 3 6 3 3.812 2.062 C3.214 1.712 2.616 1.361 2 1 C1.818 1.652 1.636 2.305 1.449 2.977 C0.016 7.959 -1.678 12.356 -4 17 C-4.708 20.237 -4.708 20.237 -5 23 C-5.66 23 -6.32 23 -7 23 C-7.33 24.65 -7.66 26.3 -8 28 C-8.66 28 -9.32 28 -10 28 C-10.33 29.32 -10.66 30.64 -11 32 C-12.255 28.235 -11.539 27.107 -10.129 23.457 C-9.72 22.384 -9.31 21.311 -8.889 20.205 C-8.451 19.086 -8.013 17.966 -7.562 16.812 C-7.129 15.681 -6.695 14.55 -6.248 13.385 C-5.174 10.587 -4.091 7.792 -3 5 C-2.34 5 -1.68 5 -1 5 C-0.67 3.35 -0.34 1.7 0 0 Z " fill="#244D6D" transform="translate(326,357)"/>
<path d="M0 0 C2.605 -0.081 5.207 -0.14 7.812 -0.188 C8.55 -0.213 9.288 -0.238 10.049 -0.264 C15.55 -0.338 15.55 -0.338 18.012 1.512 C18.501 2.248 18.501 2.248 19 3 C18.67 3.66 18.34 4.32 18 5 C10.41 5 2.82 5 -5 5 C-4.67 3.68 -4.34 2.36 -4 1 C-3.67 1.99 -3.34 2.98 -3 4 C-1.025 3.652 -1.025 3.652 1 3 C1.33 2.34 1.66 1.68 2 1 C1.34 0.67 0.68 0.34 0 0 Z " fill="#26577E" transform="translate(120,390)"/>
<path d="M0 0 C9.9 0 19.8 0 30 0 C30 2.31 30 4.62 30 7 C26.7 7 23.4 7 20 7 C20.33 5.35 20.66 3.7 21 2 C14.4 1.67 7.8 1.34 1 1 C1 2.65 1 4.3 1 6 C0.67 6 0.34 6 0 6 C0 4.02 0 2.04 0 0 Z " fill="#2F587B" transform="translate(271,357)"/>
<path d="M0 0 C6.27 0 12.54 0 19 0 C19 0.99 19 1.98 19 3 C18.01 3.33 17.02 3.66 16 4 C14.375 5.799 12.819 7.663 11.312 9.562 C10.504 10.574 9.696 11.586 8.863 12.629 C8.248 13.411 7.634 14.194 7 15 C6 12 6 12 6.996 9.52 C8.331 7.013 9.665 4.507 11 2 C5.06 2.495 5.06 2.495 -1 3 C-0.67 2.01 -0.34 1.02 0 0 Z " fill="#254966" transform="translate(368,263)"/>
<path d="M0 0 C5.625 -0.25 5.625 -0.25 9 2 C9 2.66 9 3.32 9 4 C6.36 4 3.72 4 1 4 C1 15.88 1 27.76 1 40 C0.34 40 -0.32 40 -1 40 C-1.029 36.208 -1.047 32.417 -1.062 28.625 C-1.071 27.564 -1.079 26.503 -1.088 25.41 C-1.108 18.873 -0.806 12.488 0 6 C-0.66 5.67 -1.32 5.34 -2 5 C-1.34 3.35 -0.68 1.7 0 0 Z " fill="#01192C" transform="translate(363,352)"/>
<path d="M0 0 C0.66 0 1.32 0 2 0 C2 6.93 2 13.86 2 21 C2.99 21.33 3.98 21.66 5 22 C4.67 23.32 4.34 24.64 4 26 C2.68 26 1.36 26 0 26 C-0.929 20.501 -1.152 15.196 -1.125 9.625 C-1.129 8.806 -1.133 7.988 -1.137 7.145 C-1.127 1.127 -1.127 1.127 0 0 Z " fill="#1E5989" transform="translate(117,368)"/>
<path d="M0 0 C0.66 0 1.32 0 2 0 C2.029 4 2.047 8 2.062 12 C2.071 13.125 2.079 14.251 2.088 15.41 C2.105 21.376 1.918 27.103 1 33 C0.34 32.67 -0.32 32.34 -1 32 C-1.025 27.603 -1.043 23.207 -1.055 18.81 C-1.06 17.314 -1.067 15.817 -1.075 14.32 C-1.088 12.173 -1.093 10.026 -1.098 7.879 C-1.103 6.585 -1.108 5.292 -1.114 3.959 C-1 1 -1 1 0 0 Z " fill="#1E5A7E" transform="translate(244,288)"/>
<path d="M0 0 C0.66 0 1.32 0 2 0 C2.673 1.769 3.338 3.54 4 5.312 C4.371 6.299 4.743 7.285 5.125 8.301 C6 11 6 11 6 14 C2.7 14 -0.6 14 -4 14 C-3.218 9.153 -1.602 4.623 0 0 Z " fill="#03172E" transform="translate(329,367)"/>
<path d="M0 0 C0.33 0 0.66 0 1 0 C2.711 5.513 3.461 8.532 1 14 C0.34 13.67 -0.32 13.34 -1 13 C-1.33 13.66 -1.66 14.32 -2 15 C-4.45 19.513 -7.604 23.186 -11 27 C-11.66 26.67 -12.32 26.34 -13 26 C-12.105 24.958 -12.105 24.958 -11.191 23.895 C-5.927 16.941 -2.889 8.186 0 0 Z " fill="#071C2F" transform="translate(333,177)"/>
<path d="M0 0 C0.99 0 1.98 0 3 0 C3.198 18.13 3.198 18.13 2 24 C1.34 24.33 0.68 24.66 0 25 C-1.119 17.026 -1.349 9.043 -1 1 C-0.67 0.67 -0.34 0.34 0 0 Z " fill="#1F5984" transform="translate(250,360)"/>
<path d="M0 0 C2.125 1.438 2.125 1.438 4 4 C3.752 7.128 2.944 10.015 2 13 C-0.64 13 -3.28 13 -6 13 C-5.494 8.645 -4.616 5.558 -2 2 C-1.34 2 -0.68 2 0 2 C0 1.34 0 0.68 0 0 Z " fill="#29577B" transform="translate(318,383)"/>
<path d="M0 0 C2.48 3.721 2.444 6.865 2.625 11.188 C2.664 11.937 2.702 12.687 2.742 13.459 C2.836 15.306 2.919 17.153 3 19 C3.66 17.35 4.32 15.7 5 14 C6.98 14 8.96 14 11 14 C11 14.66 11 15.32 11 16 C9.609 17.367 9.609 17.367 7.75 18.875 C4.965 21.148 2.573 23.427 0 26 C0 17.42 0 8.84 0 0 Z " fill="#031429" transform="translate(340,269)"/>
<path d="M0 0 C1.071 -0.021 2.142 -0.041 3.246 -0.062 C4.268 -0.068 5.291 -0.073 6.344 -0.078 C7.284 -0.087 8.224 -0.097 9.193 -0.106 C9.955 0.011 10.716 0.129 11.5 0.25 C12.16 1.24 12.82 2.23 13.5 3.25 C4.59 3.25 -4.32 3.25 -13.5 3.25 C-13.5 2.59 -13.5 1.93 -13.5 1.25 C-9.49 -0.755 -4.409 0.021 0 0 Z " fill="#011123" transform="translate(180.5,74.75)"/>
<path d="M0 0 C3.96 0 7.92 0 12 0 C12 10.56 12 21.12 12 32 C11.34 31.67 10.68 31.34 10 31 C10.012 30.403 10.023 29.806 10.035 29.191 C10.126 20.432 9.573 11.736 9 3 C8.01 3 7.02 3 6 3 C3.988 2.369 1.986 1.706 0 1 C0 0.67 0 0.34 0 0 Z " fill="#001930" transform="translate(270,364)"/>
<path d="M0 0 C5.61 0 11.22 0 17 0 C17.27 5.933 17.343 9.857 14 15 C13.01 15.495 13.01 15.495 12 16 C12 15.01 12 14.02 12 13 C12.66 13 13.32 13 14 13 C13.67 9.7 13.34 6.4 13 3 C9.7 2.34 6.4 1.68 3 1 C3 1.66 3 2.32 3 3 C2.34 3 1.68 3 1 3 C1 3.66 1 4.32 1 5 C3.64 5 6.28 5 9 5 C9 5.33 9 5.66 9 6 C6.03 6 3.06 6 0 6 C0 4.02 0 2.04 0 0 Z " fill="#295576" transform="translate(212,375)"/>
<path d="M0 0 C0.66 0.33 1.32 0.66 2 1 C1.67 4.3 1.34 7.6 1 11 C-2 11 -2 11 -5 10 C-6.481 9.919 -7.966 9.892 -9.449 9.902 C-10.297 9.906 -11.144 9.909 -12.018 9.912 C-13.339 9.925 -13.339 9.925 -14.688 9.938 C-16.027 9.944 -16.027 9.944 -17.393 9.951 C-19.595 9.963 -21.798 9.979 -24 10 C-24 9.34 -24 8.68 -24 8 C-24.66 7.67 -25.32 7.34 -26 7 C-17.42 7 -8.84 7 0 7 C0 4.69 0 2.38 0 0 Z " fill="#021829" transform="translate(390,389)"/>
<path d="M0 0 C0.963 0.191 1.926 0.382 2.918 0.578 C3.811 0.759 4.705 0.939 5.625 1.125 C7.624 1.464 9.624 1.8 11.625 2.125 C11.955 3.775 12.285 5.425 12.625 7.125 C12.068 6.836 11.511 6.548 10.938 6.25 C4.751 3.241 -0.261 1.849 -6.957 3.926 C-11.231 5.547 -14.792 7.257 -18.375 10.125 C-18.705 9.135 -19.035 8.145 -19.375 7.125 C-18.188 5.625 -18.188 5.625 -16.375 4.125 C-13.688 3.938 -13.688 3.938 -11.375 4.125 C-11.004 3.166 -11.004 3.166 -10.625 2.188 C-9.375 0.125 -9.375 0.125 -7.633 -0.559 C-4.872 -0.945 -2.729 -0.558 0 0 Z " fill="#011428" transform="translate(212.375,353.875)"/>
<path d="M0 0 C2.923 2.316 3.922 3.452 4.454 7.208 C4.433 8.444 4.412 9.68 4.391 10.953 C4.385 11.613 4.379 12.274 4.373 12.954 C4.351 15.053 4.301 17.151 4.25 19.25 C4.23 20.677 4.212 22.104 4.195 23.531 C4.155 27.022 4.076 30.509 4 34 C8.62 34 13.24 34 18 34 C18 34.33 18 34.66 18 35 C13.05 35 8.1 35 3 35 C2.909 33.355 2.909 33.355 2.816 31.676 C2.732 30.221 2.647 28.767 2.562 27.312 C2.523 26.591 2.484 25.87 2.443 25.127 C2.217 21.318 1.768 17.742 1 14 C0.783 11.565 0.597 9.127 0.438 6.688 C0.354 5.433 0.27 4.179 0.184 2.887 C0.123 1.934 0.062 0.981 0 0 Z " fill="#041B30" transform="translate(182,302)"/>
<path d="M0 0 C3 5.625 3 5.625 3 9 C0.101 6.605 -0.502 4.688 -1 1 C-1.99 1 -2.98 1 -4 1 C-4.227 1.536 -4.454 2.072 -4.688 2.625 C-6 5 -6 5 -8.531 7.469 C-12.143 11.744 -11.78 16.505 -11.812 21.875 C-11.838 22.85 -11.863 23.824 -11.889 24.828 C-11.947 27.219 -11.984 29.608 -12 32 C-12.33 32 -12.66 32 -13 32 C-13 23.75 -13 15.5 -13 7 C-12.01 7 -11.02 7 -10 7 C-9.897 6.402 -9.794 5.804 -9.688 5.188 C-8.018 -0.126 -5.231 -0.349 0 0 Z " fill="#254968" transform="translate(352,304)"/>
<path d="M0 0 C2.64 0 5.28 0 8 0 C8 0.66 8 1.32 8 2 C6.68 2.33 5.36 2.66 4 3 C4 2.34 4 1.68 4 1 C3.01 1.495 3.01 1.495 2 2 C1.975 6.663 1.957 11.326 1.945 15.989 C1.94 17.576 1.933 19.163 1.925 20.75 C1.912 23.029 1.907 25.307 1.902 27.586 C1.897 28.297 1.892 29.009 1.887 29.742 C1.827 33.496 1.827 33.496 3 37 C4.65 36.34 6.3 35.68 8 35 C8 36.32 8 37.64 8 39 C5.36 39 2.72 39 0 39 C0 26.13 0 13.26 0 0 Z " fill="#325675" transform="translate(247,357)"/>
<path d="M0 0 C3.146 -0.029 6.292 -0.047 9.438 -0.062 C10.335 -0.071 11.233 -0.079 12.158 -0.088 C13.012 -0.091 13.866 -0.094 14.746 -0.098 C15.932 -0.106 15.932 -0.106 17.142 -0.114 C19 0 19 0 20 1 C20.072 3.296 19.996 5.575 19.938 7.871 C19.852 10.055 19.852 10.055 21 12 C17.83 15.26 14.601 18.222 11 21 C10.34 20.67 9.68 20.34 9 20 C9.949 19.278 10.898 18.556 11.875 17.812 C17.347 13.19 17.39 7.808 18 1 C12.39 1 6.78 1 1 1 C1 2.98 1 4.96 1 7 C0.67 7 0.34 7 0 7 C0 4.69 0 2.38 0 0 Z " fill="#0D263D" transform="translate(211,374)"/>
<path d="M0 0 C0.66 0 1.32 0 2 0 C7.779 11.053 10.587 20.727 7 33 C6.67 33 6.34 33 6 33 C5.963 31.889 5.925 30.778 5.887 29.633 C5.544 21.334 4.962 13.843 2 6 C1.608 4.804 1.216 3.607 0.812 2.375 C0.544 1.591 0.276 0.808 0 0 Z " fill="#285272" transform="translate(303,130)"/>
<path d="M0 0 C0.33 0 0.66 0 1 0 C1.33 7.59 1.66 15.18 2 23 C8.571 21.767 8.571 21.767 15 20 C15.733 17.985 15.733 17.985 16 16 C16.66 16 17.32 16 18 16 C16.875 18.972 15.777 21.334 14 24 C10 25 10 25 0 25 C0 16.75 0 8.5 0 0 Z " fill="#082337" transform="translate(122,364)"/>
<path d="M0 0 C0.66 1.32 1.32 2.64 2 4 C0.902 5.152 -0.203 6.296 -1.312 7.438 C-1.927 8.076 -2.542 8.714 -3.176 9.371 C-5 11 -5 11 -8 12 C-8.65 13.392 -8.65 13.392 -9.312 14.812 C-11.3 18.566 -13.37 19.903 -17 22 C-17.66 21.67 -18.32 21.34 -19 21 C-18.048 19.994 -17.088 18.995 -16.125 18 C-15.591 17.443 -15.058 16.886 -14.508 16.312 C-13 15 -13 15 -11 15 C-10.905 14.412 -10.809 13.824 -10.711 13.219 C-9.848 10.525 -8.686 9.413 -6.625 7.5 C-4.147 5.134 -1.935 2.846 0 0 Z " fill="#255074" transform="translate(362,270)"/>
<path d="M0 0 C0.66 1.32 1.32 2.64 2 4 C1.237 4.557 0.474 5.114 -0.312 5.688 C-2.968 7.972 -4.258 10.014 -6 13 C-6.66 13 -7.32 13 -8 13 C-8 13.99 -8 14.98 -8 16 C-9.98 16.99 -9.98 16.99 -12 18 C-12.99 17.01 -13.98 16.02 -15 15 C-14.169 14.252 -13.337 13.505 -12.48 12.734 C-11.383 11.74 -10.285 10.745 -9.188 9.75 C-8.64 9.259 -8.093 8.768 -7.529 8.262 C-4.692 5.683 -2.167 3.194 0 0 Z " fill="#061D2F" transform="translate(319,204)"/>
<path d="M0 0 C2.5 1.125 2.5 1.125 5 3 C5.638 7.193 4.786 10.204 3 14 C1.02 12.68 -0.96 11.36 -3 10 C-2.67 8.35 -2.34 6.7 -2 5 C-1.34 5 -0.68 5 0 5 C0 3.35 0 1.7 0 0 Z " fill="#215982" transform="translate(337,375)"/>
<path d="M0 0 C0.33 0 0.66 0 1 0 C1.176 3.875 1.283 6.755 -1 10 C-1.99 10.33 -2.98 10.66 -4 11 C-4.083 11.743 -4.165 12.485 -4.25 13.25 C-5.159 16.585 -6.237 17.948 -9 20 C-11.25 19.75 -11.25 19.75 -13 19 C-12.67 18.34 -12.34 17.68 -12 17 C-11.34 17.33 -10.68 17.66 -10 18 C-9.67 16.68 -9.34 15.36 -9 14 C-8.34 14 -7.68 14 -7 14 C-6.773 13.175 -6.546 12.35 -6.312 11.5 C-4.738 7.301 -2.64 3.625 0 0 Z " fill="#274F70" transform="translate(205,274)"/>
<path d="M0 0 C2.01 4.02 2.239 5.532 2.195 9.859 C2.189 10.974 2.182 12.089 2.176 13.238 C2.159 14.397 2.142 15.556 2.125 16.75 C2.116 17.924 2.107 19.099 2.098 20.309 C2.074 23.206 2.041 26.103 2 29 C2.927 29.049 3.854 29.098 4.809 29.148 C6.605 29.261 6.605 29.261 8.438 29.375 C10.23 29.479 10.23 29.479 12.059 29.586 C13.029 29.723 14 29.859 15 30 C15.33 30.66 15.66 31.32 16 32 C10.72 32 5.44 32 0 32 C0 21.44 0 10.88 0 0 Z " fill="#011425" transform="translate(373,356)"/>
<path d="M0 0 C0.99 0.33 1.98 0.66 3 1 C2.988 1.759 2.977 2.519 2.965 3.301 C2.956 4.295 2.947 5.289 2.938 6.312 C2.926 7.299 2.914 8.285 2.902 9.301 C2.877 12.1 2.877 12.1 4 15 C6.97 15.33 9.94 15.66 13 16 C13 14.35 13 12.7 13 11 C13.33 11 13.66 11 14 11 C14 12.98 14 14.96 14 17 C9.38 17 4.76 17 0 17 C0 11.39 0 5.78 0 0 Z " fill="#2C5475" transform="translate(186,319)"/>
<path d="M0 0 C0.99 0 1.98 0 3 0 C3 8.58 3 17.16 3 26 C2.01 25.67 1.02 25.34 0 25 C0 16.75 0 8.5 0 0 Z " fill="#2B557A" transform="translate(252,359)"/>
<path d="M0 0 C0.66 0.33 1.32 0.66 2 1 C2.103 1.969 2.206 2.939 2.312 3.938 C2.539 4.948 2.766 5.959 3 7 C5.391 8.106 5.391 8.106 8 9 C11.118 12.926 11.942 17.196 13 22 C12.34 22 11.68 22 11 22 C10.67 20.68 10.34 19.36 10 18 C9.34 18 8.68 18 8 18 C6.76 16.087 5.607 14.118 4.5 12.125 C2.132 7.774 2.132 7.774 -1 4 C-0.625 1.875 -0.625 1.875 0 0 Z " fill="#2A5174" transform="translate(357,312)"/>
<path d="M0 0 C0.33 0 0.66 0 1 0 C1 15.51 1 31.02 1 47 C0.34 47 -0.32 47 -1 47 C-2.485 43.535 -2.485 43.535 -4 40 C-2.68 40 -1.36 40 0 40 C0 26.8 0 13.6 0 0 Z " fill="#07243C" transform="translate(290,264)"/>
<path d="M0 0 C0.99 0 1.98 0 3 0 C3.66 1.98 4.32 3.96 5 6 C4.01 5.34 3.02 4.68 2 4 C1.67 19.18 1.34 34.36 1 50 C0.67 50 0.34 50 0 50 C0 33.5 0 17 0 0 Z " fill="#102C4A" transform="translate(255,286)"/>
<path d="M0 0 C0 0.66 0 1.32 0 2 C-1.32 2.33 -2.64 2.66 -4 3 C-4 3.66 -4 4.32 -4 5 C-6.183 5.99 -8.371 6.967 -10.562 7.938 C-11.172 8.215 -11.781 8.493 -12.408 8.779 C-16.636 10.636 -20.403 11.533 -25 12 C-22.884 9.673 -20.95 8.142 -18 7 C-17.34 7.33 -16.68 7.66 -16 8 C-15.67 7.34 -15.34 6.68 -15 6 C-13.667 5.664 -12.334 5.331 -11 5 C-9.172 3.777 -7.496 2.434 -5.781 1.059 C-4 0 -4 0 0 0 Z " fill="#2B5574" transform="translate(304,218)"/>
<path d="M0 0 C-0.625 2.438 -0.625 2.438 -2 5 C-6.485 6.529 -9.744 5.979 -14 4 C-14.33 3.01 -14.66 2.02 -15 1 C-13.438 0.83 -11.875 0.664 -10.312 0.5 C-9.442 0.407 -8.572 0.314 -7.676 0.219 C-5.103 0.008 -2.58 -0.037 0 0 Z " fill="#245986" transform="translate(218,390)"/>
<path d="M0 0 C-8.746 5.533 -16.856 5.137 -27 5 C-26.67 4.34 -26.34 3.68 -26 3 C-23.462 2.57 -20.994 2.25 -18.438 2 C-13.917 1.509 -9.521 1.028 -5.125 -0.188 C-2 -1 -2 -1 0 0 Z " fill="#041A2F" transform="translate(284,230)"/>
<path d="M0 0 C0.66 0.33 1.32 0.66 2 1 C0.31 3.077 -0.598 3.923 -3.268 4.432 C-4.564 4.472 -4.564 4.472 -5.887 4.512 C-6.825 4.547 -7.762 4.583 -8.729 4.619 C-9.705 4.642 -10.681 4.664 -11.688 4.688 C-13.17 4.739 -13.17 4.739 -14.682 4.791 C-17.121 4.874 -19.56 4.943 -22 5 C-22 4.34 -22 3.68 -22 3 C-22.66 2.67 -23.32 2.34 -24 2 C-23.016 1.962 -23.016 1.962 -22.012 1.924 C-19.05 1.808 -16.087 1.685 -13.125 1.562 C-12.092 1.523 -11.06 1.484 -9.996 1.443 C-9.01 1.401 -8.024 1.36 -7.008 1.316 C-6.097 1.28 -5.185 1.243 -4.247 1.205 C-1.965 1.134 -1.965 1.134 0 0 Z " fill="#03182B" transform="translate(138,394)"/>
<path d="M0 0 C0.99 0 1.98 0 3 0 C2.01 3.96 1.02 7.92 0 12 C2.64 12 5.28 12 8 12 C7.67 12.66 7.34 13.32 7 14 C4.03 14 1.06 14 -2 14 C-2.212 8.808 -1.591 4.873 0 0 Z M9 6 C9.625 7.875 9.625 7.875 10 10 C9.34 10.66 8.68 11.32 8 12 C8.33 10.02 8.66 8.04 9 6 Z " fill="#061D30" transform="translate(312,384)"/>
<path d="M0 0 C2.381 2.381 3.002 4.339 4.125 7.5 C4.478 8.48 4.831 9.459 5.195 10.469 C6 13 6 13 6 15 C4.68 14.34 3.36 13.68 2 13 C1.67 14.32 1.34 15.64 1 17 C0.34 17 -0.32 17 -1 17 C-1.625 15.188 -1.625 15.188 -2 13 C-1.34 12.01 -0.68 11.02 0 10 C-0.011 7.736 -0.011 7.736 -0.438 5.375 C-0.661 3.922 -0.857 2.463 -1 1 C-0.67 0.67 -0.34 0.34 0 0 Z " fill="#265675" transform="translate(336,363)"/>
<path d="M0 0 C5.61 0 11.22 0 17 0 C13.555 2.296 11.062 2.54 7 3 C6.34 4.98 5.68 6.96 5 9 C4.67 8.34 4.34 7.68 4 7 C3.01 6.67 2.02 6.34 1 6 C0.67 4.02 0.34 2.04 0 0 Z " fill="#2A5273" transform="translate(159,264)"/>
<path d="M0 0 C7.008 10.512 5.333 24.959 5 37 C4.67 37 4.34 37 4 37 C3.963 35.744 3.925 34.489 3.887 33.195 C3.491 21.44 3.491 21.44 0.633 10.09 C-0.4 6.68 -0.196 3.535 0 0 Z " fill="#284F71" transform="translate(331,128)"/>
<path d="M0 0 C0.33 0 0.66 0 1 0 C1 8.25 1 16.5 1 25 C0.01 25 -0.98 25 -2 25 C-1.862 21.208 -1.713 17.417 -1.562 13.625 C-1.523 12.545 -1.484 11.465 -1.443 10.352 C-1.401 9.32 -1.36 8.289 -1.316 7.227 C-1.28 6.273 -1.243 5.32 -1.205 4.338 C-1 2 -1 2 0 0 Z " fill="#29567A" transform="translate(121,364)"/>
<path d="M0 0 C0 3 0 3 0 3 Z M-3 3 C-2.34 3 -1.68 3 -1 3 C-1.99 10.59 -2.98 18.18 -4 26 C-4.33 26 -4.66 26 -5 26 C-5.058 22.729 -5.094 19.459 -5.125 16.188 C-5.142 15.259 -5.159 14.33 -5.176 13.373 C-5.182 12.48 -5.189 11.588 -5.195 10.668 C-5.206 9.846 -5.216 9.024 -5.227 8.177 C-5 6 -5 6 -3 3 Z " fill="#021124" transform="translate(345,309)"/>
<path d="M0 0 C0.99 0.495 0.99 0.495 2 1 C1.988 2.071 1.977 3.142 1.965 4.246 C1.955 5.643 1.946 7.04 1.938 8.438 C1.929 9.145 1.921 9.852 1.912 10.58 C1.903 12.387 1.948 14.194 2 16 C2.33 16.33 2.66 16.66 3 17 C3.041 19.333 3.042 21.667 3 24 C3.99 24.33 4.98 24.66 6 25 C4.02 25 2.04 25 0 25 C0 16.75 0 8.5 0 0 Z " fill="#001123" transform="translate(130,296)"/>
<path d="M0 0 C2.972 1.125 5.334 2.223 8 4 C8 5.32 8 6.64 8 8 C5 10 5 10 2.625 9.875 C-0.535 8.822 -2.522 7.194 -5 5 C-1.801 4.911 0.927 5.089 4 6 C3.67 5.01 3.34 4.02 3 3 C0.985 2.267 0.985 2.267 -1 2 C-0.67 1.34 -0.34 0.68 0 0 Z " fill="#2D5070" transform="translate(219,358)"/>
<path d="M0 0 C3 1 3 1 5 4 C5.258 6.695 5.089 9.285 5 12 C3.68 12.33 2.36 12.66 1 13 C-0.005 9.985 -0.103 7.958 -0.062 4.812 C-0.053 3.911 -0.044 3.01 -0.035 2.082 C-0.024 1.395 -0.012 0.708 0 0 Z " fill="#225986" transform="translate(193,372)"/>
<path d="M0 0 C1.422 4.265 -0.346 7.2 -1.938 11.188 C-2.228 11.937 -2.519 12.687 -2.818 13.459 C-3.537 15.309 -4.268 17.155 -5 19 C-6.5 17.625 -6.5 17.625 -8 16 C-8 15.34 -8 14.68 -8 14 C-7.34 14 -6.68 14 -6 14 C-6.062 13.274 -6.124 12.549 -6.188 11.801 C-5.961 8.413 -4.961 6.925 -3 4.188 C-2.165 3.002 -2.165 3.002 -1.312 1.793 C-0.663 0.905 -0.663 0.905 0 0 Z " fill="#021428" transform="translate(322,362)"/>
<path d="M0 0 C2.97 0.495 2.97 0.495 6 1 C6 2.32 6 3.64 6 5 C3.03 5 0.06 5 -3 5 C-3 8.63 -3 12.26 -3 16 C-3.33 16 -3.66 16 -4 16 C-4.33 11.71 -4.66 7.42 -5 3 C-4.01 3 -3.02 3 -2 3 C-1.34 2.01 -0.68 1.02 0 0 Z " fill="#051528" transform="translate(168,352)"/>
<path d="M0 0 C3.3 0.33 6.6 0.66 10 1 C10 1.33 10 1.66 10 2 C5.545 2.495 5.545 2.495 1 3 C1 5.64 1 8.28 1 11 C-0.938 10.312 -0.938 10.312 -3 9 C-3.75 6.375 -3.75 6.375 -4 4 C-3.34 4 -2.68 4 -2 4 C-1.34 2.68 -0.68 1.36 0 0 Z " fill="#021220" transform="translate(269,353)"/>
<path d="M0 0 C0.33 0 0.66 0 1 0 C1 1.65 1 3.3 1 5 C-1.31 6.32 -3.62 7.64 -6 9 C-6 9.99 -6 10.98 -6 12 C-9.858 14.153 -12.551 15.393 -17 15 C-16 13 -16 13 -13.312 11.688 C-7.669 8.813 -3.833 4.969 0 0 Z " fill="#274D6A" transform="translate(299,187)"/>
<path d="M0 0 C2 2 2 2 2 5 C-5.92 5 -13.84 5 -22 5 C-21.67 4.01 -21.34 3.02 -21 2 C-21 2.66 -21 3.32 -21 4 C-20.42 3.837 -19.84 3.674 -19.243 3.506 C-15.773 2.723 -12.287 2.897 -8.75 2.938 C-8.005 2.942 -7.26 2.947 -6.492 2.951 C-4.661 2.963 -2.831 2.981 -1 3 C-0.67 2.01 -0.34 1.02 0 0 Z " fill="#2F5781" transform="translate(235,182)"/>
<path d="M0 0 C2 2 2 2 2.438 5.438 C2.221 7.201 2.221 7.201 2 9 C-0.5 10.938 -0.5 10.938 -3 12 C-4.127 8.62 -3.896 8.036 -2.625 4.875 C-2.349 4.171 -2.073 3.467 -1.789 2.742 C-1 1 -1 1 0 0 Z " fill="#27577C" transform="translate(253,383)"/>
<path d="M0 0 C5.94 0 11.88 0 18 0 C19 2 19 2 18.438 4.938 C16.634 8.78 14.871 9.485 11 11 C12.513 7.857 14.188 5.02 16 2 C10.72 1.67 5.44 1.34 0 1 C0 0.67 0 0.34 0 0 Z " fill="#0A2237" transform="translate(212,263)"/>
<path d="M0 0 C6.93 0 13.86 0 21 0 C21 0.66 21 1.32 21 2 C13.948 4.081 6.151 3.271 -1 2 C-0.67 1.34 -0.34 0.68 0 0 Z " fill="#021227" transform="translate(217,188)"/>
<path d="M0 0 C0.99 0 1.98 0 3 0 C3.268 1.134 3.536 2.269 3.812 3.438 C4.204 4.613 4.596 5.789 5 7 C5.99 7.33 6.98 7.66 8 8 C8.812 9.938 8.812 9.938 9 12 C8.34 12.66 7.68 13.32 7 14 C4.537 11.537 4.002 9.293 3 6 C2.01 6 1.02 6 0 6 C0 5.34 0 4.68 0 4 C-0.66 3.67 -1.32 3.34 -2 3 C-1.34 2.01 -0.68 1.02 0 0 Z " fill="#061C30" transform="translate(348,305)"/>
<path d="M0 0 C-0.021 0.784 -0.041 1.567 -0.062 2.375 C-0.187 4.981 -0.187 4.981 1 7 C0.062 9.125 0.062 9.125 -1 11 C-1.598 10.835 -2.196 10.67 -2.812 10.5 C-5.113 9.889 -5.113 9.889 -8 10 C-8.99 9.01 -9.98 8.02 -11 7 C-8.03 7 -5.06 7 -2 7 C-2.33 5.02 -2.66 3.04 -3 1 C-1 0 -1 0 0 0 Z " fill="#051320" transform="translate(351,389)"/>
<path d="M0 0 C1.207 0.031 1.207 0.031 2.438 0.062 C1.688 4.812 1.688 4.812 -0.562 7.062 C-1.023 9.265 -1.023 9.265 -1.188 11.688 C-1.262 12.505 -1.337 13.322 -1.414 14.164 C-1.463 14.791 -1.512 15.417 -1.562 16.062 C-1.892 16.062 -2.223 16.062 -2.562 16.062 C-2.756 13.584 -2.943 11.105 -3.125 8.625 C-3.181 7.918 -3.237 7.211 -3.295 6.482 C-3.424 4.678 -3.498 2.87 -3.562 1.062 C-2.562 0.062 -2.562 0.062 0 0 Z " fill="#245985" transform="translate(289.5625,358.9375)"/>
<path d="M0 0 C1.113 -0.018 1.113 -0.018 2.248 -0.037 C4.188 -0.042 6.127 0.066 8.062 0.188 C8.722 0.848 9.382 1.507 10.062 2.188 C4.452 2.188 -1.157 2.188 -6.938 2.188 C-6.607 3.507 -6.278 4.827 -5.938 6.188 C-6.597 6.188 -7.257 6.188 -7.938 6.188 C-8.32 4.531 -8.651 2.863 -8.938 1.188 C-6.895 -0.855 -2.801 0.002 0 0 Z " fill="#0C2437" transform="translate(165.9375,261.8125)"/>
<path d="M0 0 C2.64 0 5.28 0 8 0 C8.33 0.99 8.66 1.98 9 3 C8.34 3 7.68 3 7 3 C7 4.65 7 6.3 7 8 C6.67 6.68 6.34 5.36 6 4 C3.36 4 0.72 4 -2 4 C-2 3.34 -2 2.68 -2 2 C-1.34 2 -0.68 2 0 2 C0 1.34 0 0.68 0 0 Z " fill="#22577C" transform="translate(215,376)"/>
<path d="M0 0 C1 3 1 3 1 6 C1.66 6.33 2.32 6.66 3 7 C3.562 9.25 3.562 9.25 4 12 C4.186 12.928 4.371 13.856 4.562 14.812 C4.707 15.534 4.851 16.256 5 17 C2.209 15.605 1.531 13.694 0 11 C-0.577 10.175 -1.155 9.35 -1.75 8.5 C-3 6 -3 6 -2.812 3.25 C-2 1 -2 1 0 0 Z " fill="#031527" transform="translate(365,292)"/>
<path d="M0 0 C0.33 0 0.66 0 1 0 C1 11.88 1 23.76 1 36 C0.01 35.01 -0.98 34.02 -2 33 C-1.67 32.34 -1.34 31.68 -1 31 C-0.845 28.677 -0.75 26.35 -0.684 24.023 C-0.652 22.996 -0.652 22.996 -0.621 21.947 C-0.555 19.756 -0.496 17.566 -0.438 15.375 C-0.394 13.891 -0.351 12.406 -0.307 10.922 C-0.2 7.281 -0.098 3.641 0 0 Z " fill="#051F36" transform="translate(210,152)"/>
<path d="M0 0 C1.485 0.99 1.485 0.99 3 2 C3 2.99 3 3.98 3 5 C3.592 5.063 4.183 5.126 4.793 5.191 C7.92 6.337 8.668 8.093 10.312 10.938 C10.845 11.833 11.377 12.729 11.926 13.652 C12.28 14.427 12.635 15.202 13 16 C12.67 16.66 12.34 17.32 12 18 C11.01 17.34 10.02 16.68 9 16 C9 15.01 9 14.02 9 13 C8.34 13 7.68 13 7 13 C6.567 12.051 6.134 11.102 5.688 10.125 C4.207 6.8 4.207 6.8 1 5 C0.312 2.375 0.312 2.375 0 0 Z " fill="#244866" transform="translate(315,102)"/>
<path d="M0 0 C4.847 0.782 9.377 2.398 14 4 C12 6 12 6 8.688 6.375 C4.471 5.946 2.917 5.005 0 2 C0 1.34 0 0.68 0 0 Z " fill="#061C32" transform="translate(202,384)"/>
<path d="M0 0 C-2.805 2.805 -4.885 2.961 -8.797 3.098 C-9.771 3.086 -10.746 3.074 -11.75 3.062 C-12.735 3.053 -13.72 3.044 -14.734 3.035 C-15.482 3.024 -16.23 3.012 -17 3 C-16 1 -16 1 -14.18 0.332 C-9.05 -0.824 -5.151 -1.096 0 0 Z " fill="#011227" transform="translate(274,203)"/>
<path d="M0 0 C5.61 0 11.22 0 17 0 C18.32 2.64 19.64 5.28 21 8 C19 7 17 6 15 5 C15 3.68 15 2.36 15 1 C10.05 1.33 5.1 1.66 0 2 C0 1.34 0 0.68 0 0 Z " fill="#2F5675" transform="translate(242,264)"/>
<path d="M0 0 C0.66 0.33 1.32 0.66 2 1 C-3.75 6 -3.75 6 -6 6 C-6 6.66 -6 7.32 -6 8 C-8.867 7.427 -9.861 7.139 -12 5 C-10.046 4.136 -8.086 3.284 -6.125 2.438 C-5.034 1.962 -3.944 1.486 -2.82 0.996 C-1.89 0.667 -0.959 0.339 0 0 Z " fill="#04182C" transform="translate(298,223)"/>
<path d="M0 0 C0.66 0.33 1.32 0.66 2 1 C0.68 3.64 -0.64 6.28 -2 9 C-2.66 9 -3.32 9 -4 9 C-4.33 10.32 -4.66 11.64 -5 13 C-5.99 12.67 -6.98 12.34 -8 12 C-8.33 11.01 -8.66 10.02 -9 9 C-8.041 8.598 -8.041 8.598 -7.062 8.188 C-4.669 7.113 -4.669 7.113 -4 4 C-3.01 4 -2.02 4 -1 4 C-0.67 2.68 -0.34 1.36 0 0 Z " fill="#051E2E" transform="translate(200,279)"/>
<path d="M0 0 C0.66 0 1.32 0 2 0 C2 3.63 2 7.26 2 11 C0.35 11.33 -1.3 11.66 -3 12 C-3 11.34 -3 10.68 -3 10 C-2.34 10 -1.68 10 -1 10 C-1.021 8.721 -1.041 7.442 -1.062 6.125 C-1.125 2.25 -1.125 2.25 0 0 Z " fill="#25567F" transform="translate(171,383)"/>
<path d="M0 0 C1.707 1.281 3.374 2.618 5 4 C5 4.66 5 5.32 5 6 C5.99 6 6.98 6 8 6 C8 7.32 8 8.64 8 10 C8.66 10 9.32 10 10 10 C10.33 10.99 10.66 11.98 11 13 C11.66 13.66 12.32 14.32 13 15 C12.34 15.66 11.68 16.32 11 17 C9.349 14.732 7.704 12.461 6.062 10.188 C5.594 9.545 5.125 8.902 4.643 8.24 C3.971 7.307 3.971 7.307 3.285 6.355 C2.871 5.785 2.458 5.214 2.031 4.626 C1 3 1 3 0 0 Z " fill="#041C31" transform="translate(373,314)"/>
<path d="M0 0 C0.33 0 0.66 0 1 0 C2.711 5.513 3.461 8.532 1 14 C-0.516 12.785 -0.516 12.785 -2 11 C-2.109 8.809 -2.109 8.809 -1.75 6.438 C-1.642 5.652 -1.533 4.867 -1.422 4.059 C-1 2 -1 2 0 0 Z " fill="#061526" transform="translate(333,177)"/>
<path d="M0 0 C0.66 0 1.32 0 2 0 C2.433 0.454 2.866 0.908 3.312 1.375 C5.356 3.343 7.345 4.067 10 5 C10 5.66 10 6.32 10 7 C13.3 7 16.6 7 20 7 C20 7.33 20 7.66 20 8 C13.565 8.495 13.565 8.495 7 9 C6.67 8.01 6.34 7.02 6 6 C5.175 5.505 4.35 5.01 3.5 4.5 C1 3 1 3 0 0 Z " fill="#071F34" transform="translate(195,390)"/>
<path d="M0 0 C5.625 -0.25 5.625 -0.25 9 2 C9 2.66 9 3.32 9 4 C1.375 5 1.375 5 -2 5 C-1.34 3.35 -0.68 1.7 0 0 Z " fill="#040F22" transform="translate(363,352)"/>
<path d="M0 0 C0.99 0.99 1.98 1.98 3 3 C2.707 4.849 2.707 4.849 2 7 C1.856 8.805 1.754 10.613 1.684 12.422 C1.642 13.447 1.6 14.471 1.557 15.527 C1.517 16.591 1.478 17.654 1.438 18.75 C1.394 19.829 1.351 20.908 1.307 22.02 C1.201 24.68 1.099 27.34 1 30 C0.67 30 0.34 30 0 30 C0 20.1 0 10.2 0 0 Z " fill="#062037" transform="translate(201,306)"/>
<path d="M0 0 C3.662 1.221 4.163 2.368 6.188 5.562 C6.717 6.389 7.247 7.215 7.793 8.066 C8.191 8.704 8.59 9.343 9 10 C8.67 10.66 8.34 11.32 8 12 C7.01 12 6.02 12 5 12 C5 11.01 5 10.02 5 9 C4.01 9.495 4.01 9.495 3 10 C3.33 8.35 3.66 6.7 4 5 C3.34 5 2.68 5 2 5 C1.67 5.66 1.34 6.32 1 7 C0.67 4.69 0.34 2.38 0 0 Z " fill="#254C6D" transform="translate(280,298)"/>
<path d="M0 0 C0.928 0.278 0.928 0.278 1.875 0.562 C4.042 1.237 4.042 1.237 6 0 C6.99 3.3 7.98 6.6 9 10 C8.01 10 7.02 10 6 10 C4.395 7.812 4.395 7.812 2.812 5 C2.283 4.072 1.753 3.144 1.207 2.188 C0.61 1.105 0.61 1.105 0 0 Z " fill="#041528" transform="translate(264,272)"/>
<path d="M0 0 C0.66 0.33 1.32 0.66 2 1 C3.537 1.225 5.08 1.408 6.625 1.562 C7.442 1.646 8.26 1.73 9.102 1.816 C9.728 1.877 10.355 1.938 11 2 C10.67 2.66 10.34 3.32 10 4 C7.059 4.414 7.059 4.414 3.438 4.625 C2.24 4.7 1.042 4.775 -0.191 4.852 C-1.582 4.925 -1.582 4.925 -3 5 C-2.625 3.062 -2.625 3.062 -2 1 C-1.34 0.67 -0.68 0.34 0 0 Z " fill="#03111D" transform="translate(198,200)"/>
<path d="M0 0 C0 0.99 0 1.98 0 3 C-1.32 3 -2.64 3 -4 3 C-4.33 4.32 -4.66 5.64 -5 7 C-5.66 7 -6.32 7 -7 7 C-7.33 7.99 -7.66 8.98 -8 10 C-8.66 10 -9.32 10 -10 10 C-9.067 5.897 -8.359 4.284 -5 1.625 C-2 0 -2 0 0 0 Z " fill="#285478" transform="translate(204,358)"/>
<path d="M0 0 C1.98 0.495 1.98 0.495 4 1 C4 9.25 4 17.5 4 26 C3.67 26 3.34 26 3 26 C3 18.08 3 10.16 3 2 C1.02 2.99 1.02 2.99 -1 4 C-0.67 2.68 -0.34 1.36 0 0 Z " fill="#26567E" transform="translate(367,358)"/>
<path d="M0 0 C2.803 0 5.565 0.099 8.359 0.312 C8.359 0.642 8.359 0.973 8.359 1.312 C7.733 1.41 7.106 1.508 6.461 1.609 C5.235 1.834 5.235 1.834 3.984 2.062 C3.172 2.202 2.36 2.341 1.523 2.484 C-0.802 3.112 -0.802 3.112 -1.766 5.281 C-2.054 5.952 -2.343 6.622 -2.641 7.312 C-5.266 9.062 -5.266 9.062 -7.641 10.312 C-7.016 8.63 -6.339 6.966 -5.641 5.312 C-5.331 4.384 -5.022 3.456 -4.703 2.5 C-2.641 0.312 -2.641 0.312 0 0 Z " fill="#2D5375" transform="translate(213.640625,263.6875)"/>
<path d="M0 0 C1 2 1 2 0.508 4.078 C-1 6 -1 6 -4.258 6.609 C-5.534 6.656 -6.81 6.702 -8.125 6.75 C-9.406 6.807 -10.688 6.863 -12.008 6.922 C-13.489 6.961 -13.489 6.961 -15 7 C-15.33 6.34 -15.66 5.68 -16 5 C-14.519 4.961 -14.519 4.961 -13.008 4.922 C-11.726 4.865 -10.445 4.808 -9.125 4.75 C-7.849 4.704 -6.573 4.657 -5.258 4.609 C-1.908 4.374 -1.908 4.374 -0.555 1.953 C-0.372 1.309 -0.189 0.664 0 0 Z " fill="#265273" transform="translate(138,384)"/>
<path d="M0 0 C2.016 1.516 2.016 1.516 4 4 C4.13 6.768 4.073 9.04 3.75 11.75 C3.684 12.447 3.619 13.145 3.551 13.863 C3.386 15.577 3.196 17.289 3 19 C0.859 15.138 0.926 12.426 1 8 C0.742 5.318 0.375 2.669 0 0 Z " fill="#01162A" transform="translate(182,302)"/>
<path d="M0 0 C5.94 0 11.88 0 18 0 C18 0.66 18 1.32 18 2 C18.99 2 19.98 2 21 2 C21.33 4.31 21.66 6.62 22 9 C18.995 6.405 18.631 5.079 17 1 C11.39 1 5.78 1 0 1 C0 0.67 0 0.34 0 0 Z " fill="#0D273D" transform="translate(242,263)"/>
<path d="M0 0 C0.66 0 1.32 0 2 0 C0.932 4.501 -0.14 8.749 -2 13 C-2.66 13 -3.32 13 -4 13 C-4.371 6.451 -4.371 6.451 -2.562 4.25 C-2.047 3.837 -1.531 3.425 -1 3 C-0.67 2.01 -0.34 1.02 0 0 Z " fill="#275373" transform="translate(327,368)"/>
<path d="M0 0 C0.66 0 1.32 0 2 0 C1.28 4.609 -0.313 8.672 -2 13 C-2.99 13 -3.98 13 -5 13 C-4.34 12.67 -3.68 12.34 -3 12 C-2.608 9.973 -2.608 9.973 -2.5 7.625 C-2.271 4.103 -2.047 3.071 0 0 Z " fill="#225A83" transform="translate(324,368)"/>
<path d="M0 0 C2.932 2.853 5.643 5.651 8 9 C7.67 9.66 7.34 10.32 7 11 C5.68 11 4.36 11 3 11 C3 9.68 3 8.36 3 7 C2.34 7 1.68 7 1 7 C0.67 4.69 0.34 2.38 0 0 Z " fill="#264C6F" transform="translate(272,285)"/>
<path d="M0 0 C0.931 2.606 1.149 3.642 0.062 6.25 C-0.463 7.116 -0.463 7.116 -1 8 C-1.66 8 -2.32 8 -3 8 C-3.33 9.32 -3.66 10.64 -4 12 C-5.32 12.33 -6.64 12.66 -8 13 C-7.319 12.165 -7.319 12.165 -6.625 11.312 C-4.917 9.07 -4.917 9.07 -4 6.5 C-2.98 3.95 -1.727 2.12 0 0 Z " fill="#061629" transform="translate(384,266)"/>
<path d="M0 0 C0.99 0.33 1.98 0.66 3 1 C-0.023 4.455 -1.634 5.862 -6.293 6.332 C-9.541 6.314 -12.759 6.216 -16 6 C-16 5.67 -16 5.34 -16 5 C-15.432 4.974 -14.863 4.948 -14.277 4.922 C-10.019 4.609 -6.792 4.152 -3.125 1.875 C-2.094 1.256 -1.062 0.637 0 0 Z " fill="#224563" transform="translate(221,391)"/>
<path d="M0 0 C1.32 0 2.64 0 4 0 C4.33 1.98 4.66 3.96 5 6 C3.02 6.33 1.04 6.66 -1 7 C-0.67 4.69 -0.34 2.38 0 0 Z " fill="#245C81" transform="translate(342,388)"/>
<path d="M0 0 C4.95 0 9.9 0 15 0 C15 0.33 15 0.66 15 1 C11.04 1 7.08 1 3 1 C3 1.66 3 2.32 3 3 C2.34 3 1.68 3 1 3 C1 3.66 1 4.32 1 5 C3.64 5 6.28 5 9 5 C9 5.33 9 5.66 9 6 C6.03 6 3.06 6 0 6 C0 4.02 0 2.04 0 0 Z " fill="#2D5576" transform="translate(212,375)"/>
<path d="M0 0 C2.97 0 5.94 0 9 0 C9 0.66 9 1.32 9 2 C6 3 6 3 3.812 2.062 C3.214 1.712 2.616 1.361 2 1 C1.34 3.64 0.68 6.28 0 9 C-0.66 9 -1.32 9 -2 9 C-1.125 2.25 -1.125 2.25 0 0 Z " fill="#2A5575" transform="translate(326,357)"/>
<path d="M0 0 C3.005 2.595 3.369 3.921 5 8 C-0.61 8 -6.22 8 -12 8 C-12 7.67 -12 7.34 -12 7 C-7.71 7 -3.42 7 1 7 C0.67 4.69 0.34 2.38 0 0 Z " fill="#284E6A" transform="translate(382,328)"/>
<path d="M0 0 C0 3.848 -0.994 5.723 -3 9 C-6.188 11.375 -6.188 11.375 -9 13 C-9.66 12.67 -10.32 12.34 -11 12 C-10.048 10.994 -9.088 9.995 -8.125 9 C-7.324 8.165 -7.324 8.165 -6.508 7.312 C-5 6 -5 6 -3 6 C-2.876 5.381 -2.752 4.762 -2.625 4.125 C-2 2 -2 2 0 0 Z " fill="#254969" transform="translate(354,279)"/>
<path d="M0 0 C1.245 2.491 0.777 3.411 0 6 C-0.66 6 -1.32 6 -2 6 C-2 6.66 -2 7.32 -2 8 C-2.66 8 -3.32 8 -4 8 C-4.66 9.32 -5.32 10.64 -6 12 C-6.715 10.266 -6.715 10.266 -7 8 C-5.566 5.859 -5.566 5.859 -3.562 3.75 C-2.574 2.69 -2.574 2.69 -1.566 1.609 C-1.049 1.078 -0.533 0.547 0 0 Z " fill="#041B30" transform="translate(367,285)"/>
<path d="M0 0 C1.32 0 2.64 0 4 0 C6.175 2.874 7 4.364 7 8 C7.66 8 8.32 8 9 8 C9.33 8.99 9.66 9.98 10 11 C9.01 11 8.02 11 7 11 C3 5.743 3 5.743 3 3 C2.01 2.67 1.02 2.34 0 2 C0 1.34 0 0.68 0 0 Z " fill="#26506F" transform="translate(168,280)"/>
<path d="M0 0 C0.901 0.009 1.802 0.018 2.73 0.027 C3.418 0.039 4.105 0.051 4.812 0.062 C4.812 0.723 4.812 1.382 4.812 2.062 C1.183 2.062 -2.447 2.062 -6.188 2.062 C-6.517 3.382 -6.848 4.702 -7.188 6.062 C-8.507 5.402 -9.827 4.743 -11.188 4.062 C-7.776 0.326 -4.936 -0.064 0 0 Z " fill="#245475" transform="translate(374.1875,264.9375)"/>
<path d="M0 0 C0.33 0 0.66 0 1 0 C0.61 6.559 -0.421 11.945 -3 18 C-3.826 14.893 -4.255 12.231 -4 9 C-3.34 8.34 -2.68 7.68 -2 7 C-1.627 5.342 -1.293 3.674 -1 2 C-0.67 1.34 -0.34 0.68 0 0 Z " fill="#265070" transform="translate(334,167)"/>
<path d="M0 0 C3.785 0.257 5.018 0.687 7.688 3.25 C6.688 4.25 6.688 4.25 3.125 4.312 C1.991 4.292 0.856 4.271 -0.312 4.25 C-0.312 3.59 -0.312 2.93 -0.312 2.25 C-1.632 1.92 -2.952 1.59 -4.312 1.25 C-3.312 0.25 -3.312 0.25 0 0 Z " fill="#021627" transform="translate(268.3125,105.75)"/>
<path d="M0 0 C2.875 1.5 2.875 1.5 5 3 C2.537 4.232 1.334 3.958 -1.375 3.625 C-2.146 3.535 -2.917 3.445 -3.711 3.352 C-5.855 3.022 -7.907 2.564 -10 2 C-6.583 -0.103 -3.979 -0.406 0 0 Z " fill="#061D32" transform="translate(214,363)"/>
<path d="M0 0 C2.31 0 4.62 0 7 0 C6.425 0.277 5.85 0.554 5.258 0.84 C3.045 1.977 0.973 3.226 -1.125 4.562 C-3.065 5.796 -4.943 6.972 -7 8 C-7.33 7.01 -7.66 6.02 -8 5 C-6.812 3.5 -6.812 3.5 -5 2 C-2.312 1.812 -2.312 1.812 0 2 C0 1.34 0 0.68 0 0 Z " fill="#061D33" transform="translate(201,356)"/>
<path d="M0 0 C0.66 0 1.32 0 2 0 C1.67 1.65 1.34 3.3 1 5 C0.01 5.33 -0.98 5.66 -2 6 C-3.209 8 -3.209 8 -4 10 C-4.99 10 -5.98 10 -7 10 C-7.33 9.34 -7.66 8.68 -8 8 C-7.051 7.423 -6.103 6.845 -5.125 6.25 C-2.239 4.172 -1.159 3.245 0 0 Z " fill="#285579" transform="translate(372,275)"/>
<path d="M0 0 C0 0.66 0 1.32 0 2 C-1.32 2.33 -2.64 2.66 -4 3 C-4 3.66 -4 4.32 -4 5 C-5.98 5.66 -7.96 6.32 -10 7 C-10.33 6.34 -10.66 5.68 -11 5 C-9.926 4.155 -8.84 3.324 -7.75 2.5 C-7.147 2.036 -6.543 1.572 -5.922 1.094 C-4 0 -4 0 0 0 Z " fill="#275172" transform="translate(304,218)"/>
<path d="M0 0 C1.132 0.908 2.255 1.827 3.375 2.75 C4.001 3.26 4.628 3.771 5.273 4.297 C7.083 6.082 8.001 7.679 9 10 C6.562 9.188 6.562 9.188 4 8 C3.67 7.01 3.34 6.02 3 5 C2.01 5 1.02 5 0 5 C0 3.35 0 1.7 0 0 Z M-2 5 C-1.01 5.495 -1.01 5.495 0 6 C-0.99 6.495 -0.99 6.495 -2 7 C-2 6.34 -2 5.68 -2 5 Z " fill="#051B2C" transform="translate(290,116)"/>
<path d="M0 0 C4.262 0.474 6.287 2.847 9 6 C9.645 8.168 9.645 8.168 10 10 C9.529 9.59 9.059 9.18 8.574 8.758 C7.952 8.219 7.329 7.68 6.688 7.125 C6.073 6.591 5.458 6.058 4.824 5.508 C2.865 3.836 2.865 3.836 0 2 C0 1.34 0 0.68 0 0 Z " fill="#27506E" transform="translate(288,113)"/>
<path d="M0 0 C2.97 0 5.94 0 9 0 C8 4 8 4 6 7 C5.34 6.67 4.68 6.34 4 6 C4 4.35 4 2.7 4 1 C2.68 0.67 1.36 0.34 0 0 Z " fill="#091E38" transform="translate(212,381)"/>
<path d="M0 0 C3.257 3.024 5.724 6.179 8 10 C8 10.99 8 11.98 8 13 C2.25 8.375 2.25 8.375 0 5 C-0.125 2.312 -0.125 2.312 0 0 Z " fill="#284B6B" transform="translate(359,294)"/>
<path d="M0 0 C0.66 0 1.32 0 2 0 C1.419 3.76 0.348 6.53 -1.562 9.812 C-2.018 10.603 -2.473 11.393 -2.941 12.207 C-3.465 13.095 -3.465 13.095 -4 14 C-4.934 10.99 -5.044 10.133 -4 7 C-3.34 6.67 -2.68 6.34 -2 6 C-1.273 4.021 -0.602 2.02 0 0 Z " fill="#295071" transform="translate(328,185)"/>
<path d="M0 0 C1.375 0.017 1.375 0.017 2.777 0.035 C3.696 0.044 4.616 0.053 5.562 0.062 C6.273 0.074 6.983 0.086 7.715 0.098 C7.715 0.758 7.715 1.418 7.715 2.098 C4.745 2.098 1.775 2.098 -1.285 2.098 C-1.615 3.748 -1.945 5.398 -2.285 7.098 C-2.615 7.098 -2.945 7.098 -3.285 7.098 C-3.328 5.098 -3.326 3.097 -3.285 1.098 C-2.285 0.098 -2.285 0.098 0 0 Z " fill="#081E34" transform="translate(327.28515625,354.90234375)"/>
<path d="M0 0 C1.339 1.662 2.671 3.33 4 5 C4.577 5.722 5.155 6.444 5.75 7.188 C7 9 7 9 7 11 C6.01 11.33 5.02 11.66 4 12 C3.67 10.68 3.34 9.36 3 8 C2.01 8.495 2.01 8.495 1 9 C1.33 7.35 1.66 5.7 2 4 C1.34 4 0.68 4 0 4 C0 2.68 0 1.36 0 0 Z " fill="#071F34" transform="translate(170,283)"/>
<path d="M0 0 C0.866 0.804 1.732 1.609 2.625 2.438 C5.629 4.969 8.032 5.717 12 6 C12 6.33 12 6.66 12 7 C10.375 7.054 8.75 7.093 7.125 7.125 C6.22 7.148 5.315 7.171 4.383 7.195 C2 7 2 7 0 5 C-0.125 2.375 -0.125 2.375 0 0 Z " fill="#28537B" transform="translate(201,384)"/>
<path d="M0 0 C1.046 0.157 1.046 0.157 2.113 0.316 C3.827 0.575 5.539 0.848 7.25 1.125 C7.25 1.455 7.25 1.785 7.25 2.125 C-2.155 2.62 -2.155 2.62 -11.75 3.125 C-11.75 2.465 -11.75 1.805 -11.75 1.125 C-7.911 -1.546 -4.351 -0.716 0 0 Z " fill="#021223" transform="translate(222.75,260.875)"/>
<path d="M0 0 C0.66 0 1.32 0 2 0 C3.998 4.121 4.178 7.452 4 12 C2 9 2 9 2 6 C1.34 6 0.68 6 0 6 C0 4.02 0 2.04 0 0 Z " fill="#071D31" transform="translate(137,368)"/>
<path d="M0 0 C1.65 1.65 3.3 3.3 5 5 C4.67 5.66 4.34 6.32 4 7 C3.01 7.33 2.02 7.66 1 8 C0.01 7.34 -0.98 6.68 -2 6 C-1.34 4.02 -0.68 2.04 0 0 Z " fill="#051929" transform="translate(282,326)"/>
<path d="M0 0 C0.99 0.33 1.98 0.66 3 1 C3.766 2.707 3.766 2.707 4.25 4.812 C4.505 5.843 4.505 5.843 4.766 6.895 C5.022 9.195 4.69 10.806 4 13 C3.327 11.399 2.662 9.794 2 8.188 C1.629 7.294 1.257 6.401 0.875 5.48 C0 3 0 3 0 0 Z " fill="#061B2D" transform="translate(338,365)"/>
<path d="M0 0 C0.33 1.32 0.66 2.64 1 4 C-0.65 5.32 -2.3 6.64 -4 8 C-5.32 7.34 -6.64 6.68 -8 6 C-7.67 5.34 -7.34 4.68 -7 4 C-4.678 3.593 -2.343 3.256 0 3 C0 2.01 0 1.02 0 0 Z " fill="#0A1B2D" transform="translate(227,363)"/>
<path d="M0 0 C0.99 0 1.98 0 3 0 C3.33 0.99 3.66 1.98 4 3 C4.66 3 5.32 3 6 3 C6 3.66 6 4.32 6 5 C3.36 5 0.72 5 -2 5 C-2 4.34 -2 3.68 -2 3 C-1.34 3 -0.68 3 0 3 C0 2.01 0 1.02 0 0 Z " fill="#09182D" transform="translate(249,352)"/>
<path d="M0 0 C0.66 0.33 1.32 0.66 2 1 C2.124 1.969 2.248 2.939 2.375 3.938 C2.649 7.116 2.649 7.116 5.062 8.375 C5.702 8.581 6.341 8.788 7 9 C6.34 9 5.68 9 5 9 C4.67 9.66 4.34 10.32 4 11 C3.131 9.929 2.28 8.843 1.438 7.75 C0.962 7.147 0.486 6.543 -0.004 5.922 C-1 4 -1 4 -0.652 1.766 C-0.329 0.892 -0.329 0.892 0 0 Z " fill="#2A4E6D" transform="translate(357,312)"/>
<path d="M0 0 C0 3.929 -1.003 7.199 -2 11 C-3.32 10.67 -4.64 10.34 -6 10 C-4.348 6.421 -2.217 3.252 0 0 Z " fill="#071E36" transform="translate(217,282)"/>
<path d="M0 0 C0 1.32 0 2.64 0 4 C-1.98 4.99 -1.98 4.99 -4 6 C-4.99 5.01 -5.98 4.02 -7 3 C-3.375 0 -3.375 0 0 0 Z " fill="#041627" transform="translate(311,216)"/>
<path d="M0 0 C0.99 0.33 1.98 0.66 3 1 C3 1.66 3 2.32 3 3 C2.01 3.495 2.01 3.495 1 4 C-0.054 6.31 -1.057 8.643 -2 11 C-2.99 10.67 -3.98 10.34 -5 10 C-3.35 6.7 -1.7 3.4 0 0 Z " fill="#264D6E" transform="translate(305,176)"/>
<path d="M0 0 C0.33 0 0.66 0 1 0 C0.67 2.97 0.34 5.94 0 9 C-0.66 9 -1.32 9 -2 9 C-2.33 10.32 -2.66 11.64 -3 13 C-4.236 9.292 -3.568 8.325 -2.062 4.812 C-1.682 3.911 -1.302 3.01 -0.91 2.082 C-0.61 1.395 -0.309 0.708 0 0 Z " fill="#284E6E" transform="translate(318,376)"/>
<path d="M0 0 C0.66 0 1.32 0 2 0 C2 2.64 2 5.28 2 8 C1.01 8.33 0.02 8.66 -1 9 C-1.098 2.848 -1.098 2.848 -1 1 C-0.67 0.67 -0.34 0.34 0 0 Z " fill="#1C5880" transform="translate(250,360)"/>
<path d="M0 0 C1.812 0.062 1.812 0.062 4 1 C5.812 4.438 5.812 4.438 7 8 C6.67 8.66 6.34 9.32 6 10 C4.997 8.523 3.998 7.043 3 5.562 C2.443 4.739 1.886 3.915 1.312 3.066 C0 1 0 1 0 0 Z " fill="#2A5174" transform="translate(283,326)"/>
<path d="M0 0 C1.709 1.623 3.374 3.293 5 5 C5 5.66 5 6.32 5 7 C3.68 7.99 2.36 8.98 1 10 C0.67 6.7 0.34 3.4 0 0 Z " fill="#245273" transform="translate(368,308)"/>
<path d="M0 0 C4.593 1.486 7.436 3.85 11 7 C10.01 7.33 9.02 7.66 8 8 C7.67 7.01 7.34 6.02 7 5 C6.216 4.918 5.433 4.835 4.625 4.75 C2 4 2 4 0.688 1.938 C0.461 1.298 0.234 0.659 0 0 Z " fill="#2B4F71" transform="translate(296,88)"/>
<path d="M0 0 C2.834 3.203 3.521 5.781 4 10 C2.68 9.34 1.36 8.68 0 8 C0 5.36 0 2.72 0 0 Z " fill="#28526F" transform="translate(338,368)"/>
<path d="M0 0 C0.598 0.351 1.196 0.701 1.812 1.062 C1.482 2.053 1.153 3.043 0.812 4.062 C-1.356 3.556 -3.187 3.063 -5.188 2.062 C-5.188 1.402 -5.188 0.743 -5.188 0.062 C-2.188 -0.938 -2.188 -0.938 0 0 Z " fill="#1E5A7C" transform="translate(222.1875,360.9375)"/>
<path d="M0 0 C2.475 0.495 2.475 0.495 5 1 C5.33 2.65 5.66 4.3 6 6 C5.01 6 4.02 6 3 6 C0 2.667 0 2.667 0 0 Z " fill="#041428" transform="translate(274,286)"/>
<path d="M0 0 C0 0.66 0 1.32 0 2 C-3.858 4.153 -6.551 5.393 -11 5 C-8.864 0.728 -4.409 0 0 0 Z " fill="#265274" transform="translate(293,197)"/>
<path d="M0 0 C2.565 2.565 2.54 4.477 3 8 C0.03 8 -2.94 8 -6 8 C-6 7.67 -6 7.34 -6 7 C-2.535 6.505 -2.535 6.505 1 6 C0.67 4.02 0.34 2.04 0 0 Z " fill="#274B65" transform="translate(346,388)"/>
<path d="M0 0 C1.675 0.286 3.344 0.618 5 1 C4.34 2.32 3.68 3.64 3 5 C2.34 4.67 1.68 4.34 1 4 C0.01 4.33 -0.98 4.66 -2 5 C-1.125 1.125 -1.125 1.125 0 0 Z " fill="#06111C" transform="translate(218,283)"/>
<path d="M0 0 C2.64 0 5.28 0 8 0 C7.67 0.99 7.34 1.98 7 3 C5.02 3 3.04 3 1 3 C0.67 2.01 0.34 1.02 0 0 Z " fill="#02111D" transform="translate(224,234)"/>
<path d="M0 0 C1.32 0.66 2.64 1.32 4 2 C3.67 3.32 3.34 4.64 3 6 C1.68 6 0.36 6 -1 6 C-0.67 4.02 -0.34 2.04 0 0 Z " fill="#225987" transform="translate(118,388)"/>
<path d="M0 0 C1.65 0 3.3 0 5 0 C5.33 0.99 5.66 1.98 6 3 C3.36 3 0.72 3 -2 3 C-1.34 2.67 -0.68 2.34 0 2 C0 1.34 0 0.68 0 0 Z " fill="#021123" transform="translate(214,371)"/>
<path d="M0 0 C0.99 0 1.98 0 3 0 C3.66 1.98 4.32 3.96 5 6 C4.01 5.34 3.02 4.68 2 4 C1.67 5.98 1.34 7.96 1 10 C0.67 10 0.34 10 0 10 C0 6.7 0 3.4 0 0 Z " fill="#0F2F4D" transform="translate(255,286)"/>
<path d="M0 0 C0.33 0.99 0.66 1.98 1 3 C-0.404 5.264 -2.197 7.021 -4 9 C-4.99 8.67 -5.98 8.34 -7 8 C-4.69 5.36 -2.38 2.72 0 0 Z " fill="#041D34" transform="translate(379,272)"/>
<path d="M0 0 C0.33 0.66 0.66 1.32 1 2 C-0.98 4.97 -2.96 7.94 -5 11 C-5.33 10.34 -5.66 9.68 -6 9 C-5.293 7.09 -5.293 7.09 -4.188 4.938 C-3.83 4.225 -3.473 3.512 -3.105 2.777 C-2 1 -2 1 0 0 Z " fill="#071E36" transform="translate(210,264)"/>
<path d="M0 0 C2.31 0 4.62 0 7 0 C6.67 0.99 6.34 1.98 6 3 C4.02 3 2.04 3 0 3 C0 2.01 0 1.02 0 0 Z " fill="#021019" transform="translate(249,235)"/>
<path d="M0 0 C0.66 0.33 1.32 0.66 2 1 C2.625 4.062 2.625 4.062 3 7 C2.01 7.495 2.01 7.495 1 8 C-2 3.25 -2 3.25 -2 1 C-1.34 0.67 -0.68 0.34 0 0 Z " fill="#021328" transform="translate(325,109)"/>
<path d="M0 0 C0.99 0.33 1.98 0.66 3 1 C3 2.32 3 3.64 3 5 C1.68 5.33 0.36 5.66 -1 6 C-1.33 5.01 -1.66 4.02 -2 3 C-1.34 2.01 -0.68 1.02 0 0 Z " fill="#255780" transform="translate(317,389)"/>
<path d="M0 0 C2.475 0.495 2.475 0.495 5 1 C5.33 3.31 5.66 5.62 6 8 C5.67 7.34 5.34 6.68 5 6 C4.34 6 3.68 6 3 6 C2.01 4.02 1.02 2.04 0 0 Z " fill="#275274" transform="translate(192,384)"/>
<path d="M0 0 C2 2 2 2 2 5 C-1.3 5 -4.6 5 -8 5 C-7.67 3.68 -7.34 2.36 -7 1 C-7 1.99 -7 2.98 -7 4 C-5.02 3.67 -3.04 3.34 -1 3 C-0.67 2.01 -0.34 1.02 0 0 Z " fill="#05243E" transform="translate(333,376)"/>
<path d="M0 0 C0.911 3.073 1.089 5.801 1 9 C0.01 9 -0.98 9 -2 9 C-2.25 3.375 -2.25 3.375 0 0 Z " fill="#244C70" transform="translate(194,364)"/>
<path d="M0 0 C0.66 0.33 1.32 0.66 2 1 C2.188 3.875 2.188 3.875 2 7 C0.515 7.99 0.515 7.99 -1 9 C-1.098 2.848 -1.098 2.848 -1 1 C-0.67 0.67 -0.34 0.34 0 0 Z " fill="#1E5C83" transform="translate(335,367)"/>
<path d="M0 0 C3.987 2.658 5.5 5.499 7 10 C6.01 10 5.02 10 4 10 C3.328 8.711 2.663 7.419 2 6.125 C1.629 5.406 1.257 4.686 0.875 3.945 C0 2 0 2 0 0 Z " fill="#0A233B" transform="translate(269,306)"/>
<path d="M0 0 C0.33 0 0.66 0 1 0 C1.366 4.517 1.366 4.517 -0.375 6.812 C-2 8 -2 8 -4 8 C-4 6.68 -4 5.36 -4 4 C-3.01 4 -2.02 4 -1 4 C-0.67 2.68 -0.34 1.36 0 0 Z " fill="#265171" transform="translate(343,307)"/>
<path d="M0 0 C0.66 0.33 1.32 0.66 2 1 C1.312 2.938 1.312 2.938 0 5 C-2.625 5.75 -2.625 5.75 -5 6 C-3.63 2.839 -3.011 2.007 0 0 Z " fill="#2C5676" transform="translate(346,290)"/>
<path d="M0 0 C0 0.66 0 1.32 0 2 C-2.751 2.917 -4.359 3.109 -7.188 3.062 C-9.075 3.032 -9.075 3.032 -11 3 C-10.67 2.34 -10.34 1.68 -10 1 C-6.562 0.236 -3.535 0 0 0 Z " fill="#040F1A" transform="translate(267,201)"/>
<path d="M0 0 C0.33 0.66 0.66 1.32 1 2 C-0.98 4.31 -2.96 6.62 -5 9 C-5.66 8.67 -6.32 8.34 -7 8 C-4.69 5.36 -2.38 2.72 0 0 Z " fill="#051A30" transform="translate(327,195)"/>
<path d="M0 0 C2.64 0 5.28 0 8 0 C7.67 1.32 7.34 2.64 7 4 C4.085 2.926 2.222 2.222 0 0 Z " fill="#04182C" transform="translate(247,396)"/>
<path d="M0 0 C2.97 0 5.94 0 9 0 C9 0.99 9 1.98 9 3 C8.01 3.495 8.01 3.495 7 4 C7 3.34 7 2.68 7 2 C4.69 1.67 2.38 1.34 0 1 C0 0.67 0 0.34 0 0 Z " fill="#051A2C" transform="translate(166,396)"/>
<path d="M0 0 C2.97 0.495 2.97 0.495 6 1 C6.33 1.99 6.66 2.98 7 4 C4.36 4 1.72 4 -1 4 C-0.67 2.68 -0.34 1.36 0 0 Z " fill="#2D526E" transform="translate(283,392)"/>
<path d="M0 0 C0.66 0.66 1.32 1.32 2 2 C3.65 1.34 5.3 0.68 7 0 C7 1.32 7 2.64 7 4 C4.36 4 1.72 4 -1 4 C-0.67 2.68 -0.34 1.36 0 0 Z " fill="#30506F" transform="translate(248,392)"/>
<path d="M0 0 C0.33 0 0.66 0 1 0 C1 1.65 1 3.3 1 5 C-0.65 5.66 -2.3 6.32 -4 7 C-4.66 6.34 -5.32 5.68 -6 5 C-5.381 4.918 -4.762 4.835 -4.125 4.75 C-1.816 4.187 -1.816 4.187 -0.75 1.938 C-0.502 1.298 -0.255 0.659 0 0 Z " fill="#275176" transform="translate(220,384)"/>
<path d="M0 0 C0.66 0 1.32 0 2 0 C0.875 2.972 -0.223 5.334 -2 8 C-2.66 8 -3.32 8 -4 8 C-3.67 6.68 -3.34 5.36 -3 4 C-2.34 4 -1.68 4 -1 4 C-0.67 2.68 -0.34 1.36 0 0 Z " fill="#051731" transform="translate(138,380)"/>
<path d="M0 0 C0 2.31 0 4.62 0 7 C-1.32 6.34 -2.64 5.68 -4 5 C-4 4.01 -4 3.02 -4 2 C-1 0 -1 0 0 0 Z " fill="#1F5A86" transform="translate(226,377)"/>
<path d="M0 0 C0.33 1.32 0.66 2.64 1 4 C-0.32 4.33 -1.64 4.66 -3 5 C-3.33 3.68 -3.66 2.36 -4 1 C-2 0 -2 0 0 0 Z " fill="#070C19" transform="translate(331,374)"/>
<path d="M0 0 C0.99 0 1.98 0 3 0 C3 0.66 3 1.32 3 2 C3.66 2 4.32 2 5 2 C5 4.64 5 7.28 5 10 C3 7 3 7 2.5 3.875 C2.335 2.926 2.17 1.978 2 1 C1.34 0.67 0.68 0.34 0 0 Z " fill="#254E6F" transform="translate(329,366)"/>
<path d="M0 0 C0 3 0 3 0 3 Z M-3 3 C-2.34 3 -1.68 3 -1 3 C-1.564 6.27 -2.5 7.826 -5 10 C-4.125 4.125 -4.125 4.125 -3 3 Z " fill="#041830" transform="translate(345,309)"/>
<path d="M0 0 C2.475 0.99 2.475 0.99 5 2 C5 3.98 5 5.96 5 8 C2.748 5.312 1.118 3.354 0 0 Z " fill="#2B5070" transform="translate(178,294)"/>
<path d="M0 0 C1.65 0 3.3 0 5 0 C3.35 1.98 1.7 3.96 0 6 C-1.125 2.25 -1.125 2.25 0 0 Z " fill="#03162A" transform="translate(353,275)"/>
<path d="M0 0 C1.98 0 3.96 0 6 0 C4.68 2.31 3.36 4.62 2 7 C1.222 4.667 0.576 2.386 0 0 Z " fill="#325372" transform="translate(223,264)"/>
<path d="M0 0 C0.66 0.33 1.32 0.66 2 1 C0.68 3.64 -0.64 6.28 -2 9 C-2.66 7.68 -3.32 6.36 -4 5 C-2.68 3.35 -1.36 1.7 0 0 Z " fill="#04182A" transform="translate(305,173)"/>
<path d="M0 0 C2.97 0 5.94 0 9 0 C7.35 1.32 5.7 2.64 4 4 C2.68 2.68 1.36 1.36 0 0 Z " fill="#09192E" transform="translate(340,396)"/>
<path d="M0 0 C1.145 0.495 1.145 0.495 2.312 1 C4.991 2.174 4.991 2.174 8 2 C8 2.66 8 3.32 8 4 C5.36 4 2.72 4 0 4 C0 2.68 0 1.36 0 0 Z " fill="#2F516B" transform="translate(312,392)"/>
<path d="M0 0 C1 3 1 3 0.25 5.125 C-1 7 -1 7 -4 8 C-2.25 2.25 -2.25 2.25 0 0 Z " fill="#021227" transform="translate(322,362)"/>
<path d="M0 0 C2.972 1.125 5.334 2.223 8 4 C7.67 5.32 7.34 6.64 7 8 C6.67 7.01 6.34 6.02 6 5 C4.354 4.283 2.686 3.617 1 3 C0.34 2.34 -0.32 1.68 -1 1 C-0.67 0.67 -0.34 0.34 0 0 Z " fill="#264C68" transform="translate(219,358)"/>
<path d="M0 0 C0.66 0.33 1.32 0.66 2 1 C1.67 2.65 1.34 4.3 1 6 C0.01 5.67 -0.98 5.34 -2 5 C-2.33 4.01 -2.66 3.02 -3 2 C-2.01 1.34 -1.02 0.68 0 0 Z " fill="#041731" transform="translate(194,286)"/>
<path d="M0 0 C1.083 0.371 1.083 0.371 2.188 0.75 C-0.819 3.756 -3.636 3.346 -7.812 3.75 C-3.505 -0.312 -3.505 -0.312 0 0 Z " fill="#01142B" transform="translate(271.8125,202.25)"/>
<path d="M0 0 C0.66 0 1.32 0 2 0 C3.562 2.812 3.562 2.812 5 6 C4.67 6.99 4.34 7.98 4 9 C2.009 6.014 1.059 3.403 0 0 Z " fill="#275170" transform="translate(303,130)"/>
<path d="M0 0 C2.64 0 5.28 0 8 0 C7.67 0.99 7.34 1.98 7 3 C6.01 3.33 5.02 3.66 4 4 C4 3.01 4 2.02 4 1 C2.68 1.33 1.36 1.66 0 2 C0 1.34 0 0.68 0 0 Z " fill="#02192C" transform="translate(282,396)"/>
<path d="M0 0 C3.3 0 6.6 0 10 0 C9.01 0.495 9.01 0.495 8 1 C7.67 1.99 7.34 2.98 7 4 C4.506 2.796 2.319 1.546 0 0 Z " fill="#02162B" transform="translate(270,364)"/>
<path d="M0 0 C2.64 0 5.28 0 8 0 C8.33 1.65 8.66 3.3 9 5 C4.545 3.02 4.545 3.02 0 1 C0 0.67 0 0.34 0 0 Z " fill="#081D37" transform="translate(216,356)"/>
<path d="M0 0 C1.65 0 3.3 0 5 0 C5 1.98 5 3.96 5 6 C3.312 4.355 1.646 2.687 0 1 C0 0.67 0 0.34 0 0 Z " fill="#2C5476" transform="translate(258,288)"/>
<path d="M0 0 C0.33 0.66 0.66 1.32 1 2 C-0.312 4.625 -0.312 4.625 -2 7 C-2.66 7 -3.32 7 -4 7 C-3.436 3.73 -2.5 2.174 0 0 Z " fill="#2A5273" transform="translate(359,274)"/>
<path d="M0 0 C0.66 0.66 1.32 1.32 2 2 C0.35 3.98 -1.3 5.96 -3 8 C-4 5 -4 5 -3.188 2.875 C-2 1 -2 1 0 0 Z " fill="#284F71" transform="translate(378,270)"/>
<path d="M0 0 C-3.644 2.429 -5.712 2.162 -10 2 C-6.805 -1.195 -4.22 -1.357 0 0 Z " fill="#1E3F5A" transform="translate(282,203)"/>
<path d="M0 0 C0.75 1.75 0.75 1.75 1 4 C-0.938 6.25 -0.938 6.25 -3 8 C-2.744 5.657 -2.407 3.322 -2 1 C-1.34 0.67 -0.68 0.34 0 0 Z " fill="#2B5374" transform="translate(322,196)"/>
<path d="M0 0 C0.33 0 0.66 0 1 0 C1 3.96 1 7.92 1 12 C0.01 11.01 -0.98 10.02 -2 9 C-1.855 6.738 -1.855 6.738 -1.188 4.312 C-0.975 3.504 -0.762 2.696 -0.543 1.863 C-0.364 1.248 -0.185 0.634 0 0 Z " fill="#041931" transform="translate(210,176)"/>
<path d="M0 0 C2.97 0 5.94 0 9 0 C9.33 0.99 9.66 1.98 10 3 C6.7 2.34 3.4 1.68 0 1 C0 0.67 0 0.34 0 0 Z " fill="#072133" transform="translate(272,79)"/>
</svg>